<svg  width="268" height="349" viewBox="0 0 68 88" fill="none" xmlns="http://www.w3.org/2000/svg">
<path d="M41.08 78.03C40.65 78.03 40.23 77.94 39.87 77.75C38.99 77.31 38.51 76.43 38.06 75.58C37.77 75.04 37.46 74.48 37.06 74.04C35.93 72.81 34.05 72.58 32.74 72.51C31.12 72.42 29.44 72.34 27.73 71.84C26.2 71.39 24.75 69.93 23.66 68.71C22.29 67.17 21.42 65.4 21.15 63.59C20.9 61.9 21.19 60.2 21.98 58.81C22.08 58.64 22.18 58.49 22.27 58.34C22.55 57.91 22.77 57.58 22.75 56.96C22.72 56.28 22.43 55.58 21.96 55.05C21.31 54.33 20.34 53.86 19.23 53.74C18.31 53.64 17.29 53.76 16.13 54.11C14.33 54.65 12.61 55.62 11.17 56.91C10.08 57.88 9.31999 59.01 8.52999 60.21C8.26999 60.6 8.01001 61 7.73001 61.39C7.68001 61.46 7.58998 61.47 7.51998 61.43C7.44998 61.38 7.44001 61.29 7.48001 61.22C7.76001 60.83 8.01999 60.43 8.27999 60.05C9.08999 58.84 9.85 57.69 10.97 56.69C12.45 55.38 14.2 54.39 16.04 53.83C17.25 53.47 18.3 53.34 19.26 53.45C20.45 53.58 21.49 54.08 22.18 54.86C22.7 55.44 23.02 56.21 23.05 56.96C23.08 57.67 22.82 58.06 22.53 58.52C22.44 58.66 22.34 58.81 22.25 58.97C21.49 60.3 21.21 61.93 21.45 63.56C21.71 65.31 22.55 67.03 23.89 68.53C24.95 69.72 26.36 71.15 27.82 71.58C29.49 72.07 31.16 72.15 32.76 72.24C34.12 72.31 36.08 72.56 37.28 73.86C37.71 74.33 38.02 74.9 38.32 75.46C38.78 76.3 39.21 77.1 40.01 77.5C40.61 77.8 41.38 77.82 42.12 77.56C42.74 77.33 43.33 76.92 43.92 76.3C44.07 76.14 44.24 75.95 44.38 75.74C43.87 75.64 43.45 75.39 43.18 75.03C42.93 74.7 42.86 74.29 43 73.97C43.1 73.73 43.32 73.55 43.6 73.48C43.92 73.4 44.27 73.46 44.52 73.65C45 74.02 45.09 74.68 44.97 75.17C44.94 75.28 44.9 75.39 44.86 75.49C45.3 75.5 45.75 75.41 46.24 75.3C47.23 75.08 48.26 74.82 49.16 74.31C50.13 73.75 50.82 72.93 51.04 72.05C51.34 70.86 50.82 69.41 49.71 68.37C48.68 67.41 47.34 66.85 46.06 66.32C45.98 66.29 45.95 66.2 45.98 66.13C46.01 66.05 46.1 66.02 46.17 66.05C47.42 66.57 48.84 67.16 49.91 68.16C51.1 69.27 51.66 70.83 51.33 72.13C51.09 73.09 50.35 73.98 49.31 74.58C48.38 75.12 47.31 75.38 46.31 75.6C45.75 75.72 45.24 75.82 44.72 75.79C44.55 76.07 44.34 76.31 44.15 76.51C43.53 77.17 42.9 77.6 42.23 77.85C41.85 77.99 41.47 78.06 41.1 78.06L41.08 78.03ZM43.88 73.72C43.81 73.72 43.74 73.72 43.67 73.75C43.48 73.8 43.34 73.91 43.27 74.07C43.16 74.34 43.27 74.64 43.42 74.84C43.66 75.16 44.06 75.38 44.54 75.45C44.6 75.33 44.64 75.21 44.68 75.08C44.8 74.61 44.66 74.11 44.34 73.86C44.22 73.77 44.06 73.72 43.89 73.72H43.88Z" fill="#262028"/>
<path d="M41.93 63.06H41.91C41.83 63.05 41.77 62.97 41.78 62.89L41.82 62.6C40.76 62.4 39.66 62.46 38.59 62.52C38.22 62.54 37.83 62.56 37.45 62.57C35.45 62.62 34.04 62.26 33.03 61.44C32.03 60.63 31.51 59.42 31 58.25C30.75 57.66 30.48 57.05 30.16 56.5C28.71 54.02 25.69 52.47 22.66 52.64C19.78 52.8 16.99 54.41 15.2 56.94C14.99 57.23 14.8 57.54 14.61 57.84C14.12 58.62 13.6 59.42 12.88 60.02C11.86 60.86 10.16 61.18 9.18999 60.22C9.12999 60.16 9.12999 60.07 9.18999 60.01C9.24999 59.95 9.33998 59.95 9.39998 60.01C10.25 60.85 11.77 60.56 12.69 59.79C13.38 59.22 13.88 58.44 14.36 57.68C14.55 57.38 14.75 57.07 14.96 56.77C16.8 54.17 19.67 52.51 22.65 52.35C25.8 52.18 28.92 53.79 30.43 56.36C30.76 56.93 31.03 57.55 31.29 58.14C31.8 59.33 32.28 60.44 33.23 61.21C34.19 61.99 35.53 62.33 37.46 62.27C37.84 62.27 38.22 62.24 38.6 62.22C39.74 62.16 40.91 62.09 42.05 62.34C42.13 62.36 42.18 62.43 42.17 62.51L42.11 62.94C42.1 63.01 42.04 63.07 41.96 63.07L41.93 63.06Z" fill="#FE443E"/>
<path d="M29.42 59.57C25.26 61.97 25.24 65.87 29.37 68.27C33.51 70.67 40.24 70.67 44.4 68.27C48.56 65.87 48.59 61.97 44.45 59.56C40.31 57.16 33.59 57.16 29.42 59.56V59.57Z" fill="white"/>
<path d="M36.88 70.23C34.13 70.23 31.39 69.62 29.3 68.41C27.26 67.22 26.14 65.64 26.14 63.94C26.14 62.23 27.28 60.64 29.35 59.44L29.42 59.57L29.35 59.44C33.55 57.02 40.36 57.02 44.53 59.44C46.57 60.63 47.69 62.21 47.69 63.91C47.69 65.62 46.55 67.21 44.48 68.41C42.38 69.62 39.63 70.23 36.88 70.23ZM36.95 57.92C34.26 57.92 31.56 58.51 29.5 59.7C27.53 60.84 26.44 62.34 26.44 63.94C26.44 65.52 27.51 67.02 29.45 68.15C33.54 70.53 40.21 70.53 44.33 68.15C46.3 67.01 47.39 65.51 47.39 63.91C47.39 62.33 46.32 60.83 44.38 59.7C42.34 58.51 39.65 57.92 36.95 57.92Z" fill="#262028"/>
<path d="M42.23 65.07L44.79 63.59L41.62 45.63L39.07 47.12L42.23 65.07Z" fill="#E2E1F2"/>
<path d="M42.23 65.22C42.23 65.22 42.19 65.22 42.17 65.21C42.13 65.19 42.09 65.15 42.09 65.1L38.92 47.15C38.91 47.09 38.94 47.03 38.99 47L41.54 45.52C41.54 45.52 41.63 45.49 41.68 45.52C41.72 45.54 41.76 45.58 41.76 45.63L44.93 63.58C44.94 63.64 44.91 63.7 44.86 63.73L42.31 65.21C42.31 65.21 42.26 65.23 42.24 65.23L42.23 65.22ZM39.23 47.19L42.34 64.83L44.62 63.51L41.51 45.87L39.23 47.19Z" fill="#262028"/>
<path d="M39.07 47.12L41.62 45.63L32.6 40.45L30.05 41.93L39.07 47.12Z" fill="white"/>
<path d="M39.07 47.27C39.07 47.27 39.02 47.27 39 47.25L29.98 42.07C29.98 42.07 29.91 41.99 29.91 41.94C29.91 41.89 29.94 41.84 29.98 41.81L32.53 40.33C32.53 40.33 32.63 40.3 32.68 40.33L41.7 45.51C41.7 45.51 41.77 45.59 41.77 45.64C41.77 45.69 41.74 45.74 41.7 45.77L39.15 47.25C39.15 47.25 39.1 47.27 39.08 47.27H39.07ZM30.35 41.94L39.07 46.95L41.33 45.64L32.61 40.63L30.35 41.94Z" fill="#262028"/>
<path d="M30.05 41.93L33.21 59.89L42.23 65.07L39.07 47.12L30.05 41.93Z" fill="white"/>
<path d="M42.23 65.22C42.23 65.22 42.18 65.22 42.16 65.2L33.14 60.02C33.14 60.02 33.08 59.96 33.07 59.92L29.9 41.97C29.9 41.91 29.91 41.86 29.96 41.82C30.01 41.79 30.07 41.78 30.12 41.82L39.14 47C39.14 47 39.2 47.06 39.21 47.1L42.38 65.05C42.38 65.11 42.37 65.16 42.32 65.2C42.29 65.22 42.26 65.23 42.23 65.23V65.22ZM33.34 59.79L42.02 64.78L38.92 47.21L30.24 42.22L33.34 59.79Z" fill="#262028"/>
<path d="M26.29 63.96V65.44C26.29 67.01 27.33 68.57 29.38 69.76C33.52 72.16 40.25 72.16 44.41 69.76C46.51 68.55 47.55 66.96 47.55 65.38V63.9C47.55 65.49 46.5 67.07 44.41 68.28C40.25 70.68 33.52 70.68 29.38 68.28C27.33 67.09 26.3 65.52 26.29 63.96Z" fill="#E2E1F2"/>
<path d="M36.88 71.7C34.13 71.7 31.39 71.09 29.3 69.88C27.27 68.7 26.14 67.12 26.14 65.43V63.95C26.14 63.87 26.21 63.8 26.29 63.8C26.37 63.8 26.44 63.87 26.44 63.95C26.44 65.53 27.51 67.02 29.45 68.14C33.54 70.52 40.21 70.52 44.33 68.14C46.31 67 47.4 65.49 47.39 63.89C47.39 63.81 47.46 63.74 47.54 63.74C47.62 63.74 47.69 63.81 47.69 63.89V65.37C47.69 67.08 46.56 68.68 44.48 69.88C42.38 71.09 39.63 71.7 36.88 71.7ZM26.44 65.44C26.44 67.01 27.52 68.5 29.45 69.62C33.54 72 40.21 72 44.33 69.62C46.3 68.48 47.39 66.97 47.39 65.38C46.93 66.52 45.93 67.56 44.47 68.4C40.27 70.82 33.46 70.82 29.29 68.4C27.87 67.57 26.89 66.55 26.43 65.44H26.44Z" fill="#262028"/>
<path d="M13.22 3.82002C13.22 3.19002 13.44 2.75 13.8 2.55L15.21 1.73002C15.57 1.52002 16.07 1.55001 16.62 1.87001L62.62 28.42C63.72 29.05 64.6 30.59 64.6 31.85L64.51 65.31C64.51 65.94 64.29 66.38 63.93 66.58L62.52 67.4C62.52 67.4 62.56 67.37 62.59 67.35C62.23 67.6 61.7 67.6 61.11 67.26L15.11 40.71C14.01 40.08 13.13 38.54 13.13 37.28L13.22 3.82002Z" fill="white"/>
<path d="M62 67.67C61.7 67.67 61.37 67.57 61.04 67.38L15.04 40.83C13.9 40.17 12.98 38.58 12.99 37.27L13.08 3.80999C13.08 3.14999 13.31 2.66 13.72 2.41L15.13 1.57998C15.55 1.32998 16.11 1.37999 16.69 1.71999L62.69 28.27C63.83 28.93 64.75 30.52 64.74 31.83L64.65 65.29C64.65 65.95 64.42 66.45 64 66.69L62.58 67.51C62.58 67.51 62.56 67.52 62.55 67.52C62.38 67.61 62.19 67.66 61.98 67.66L62 67.67ZM13.37 3.82L13.28 37.28C13.28 38.49 14.13 39.97 15.18 40.58L61.18 67.13C61.69 67.42 62.17 67.46 62.5 67.23C62.52 67.22 62.53 67.21 62.55 67.21L63.86 66.45C64.18 66.26 64.36 65.85 64.36 65.3L64.45 31.85C64.45 30.64 63.6 29.16 62.55 28.55L16.55 1.99999C16.06 1.71999 15.62 1.66998 15.29 1.85998L13.89 2.67001C13.56 2.86001 13.38 3.27 13.38 3.82H13.37Z" fill="#262028"/>
<path d="M13.81 2.54002C13.45 2.75002 13.23 3.19002 13.22 3.82002L13.13 37.28C13.13 38.54 14.01 40.07 15.11 40.71L61.11 67.26C62.21 67.89 63.1 67.38 63.1 66.12L63.19 32.66C63.19 31.4 62.31 29.87 61.21 29.23L15.21 2.68001C14.66 2.36001 14.17 2.33002 13.8 2.54002H13.81Z" fill="white"/>
<path d="M62 67.67C61.7 67.67 61.37 67.57 61.04 67.38L15.04 40.83C13.9 40.17 12.98 38.58 12.99 37.27L13.08 3.80999C13.08 3.14999 13.32 2.64998 13.74 2.39998C14.16 2.15998 14.72 2.21 15.29 2.54L58.58 27.53C58.65 27.57 58.68 27.66 58.63 27.73C58.59 27.8 58.5 27.83 58.43 27.78L15.14 2.79C14.66 2.51 14.21 2.45998 13.88 2.64998C13.55 2.83998 13.37 3.23998 13.37 3.79998L13.28 37.26C13.28 38.47 14.13 39.95 15.18 40.56L61.18 67.11C61.66 67.39 62.11 67.44 62.44 67.25C62.77 67.06 62.95 66.65 62.95 66.1L63.04 35.79C63.04 35.71 63.11 35.64 63.19 35.64C63.27 35.64 63.34 35.71 63.34 35.79L63.25 66.1C63.25 66.76 63.01 67.26 62.59 67.5C62.41 67.6 62.21 67.65 62 67.65V67.67Z" fill="#262028"/>
<path d="M16.62 39.02L59.7 63.89C60.48 64.34 61.11 63.98 61.11 63.07V32.84C61.11 31.94 60.48 30.84 59.7 30.39L16.62 5.51999C15.84 5.06999 15.21 5.43 15.21 6.34V36.57C15.21 37.47 15.84 38.57 16.62 39.02Z" fill="#E2E1F2"/>
<path d="M60.34 64.23C60.12 64.23 59.88 64.16 59.63 64.02L16.55 39.15C15.73 38.68 15.06 37.52 15.06 36.57V6.34C15.06 5.85 15.23 5.48 15.55 5.3C15.86 5.12 16.27 5.15 16.7 5.4L59.78 30.27C60.6 30.74 61.27 31.9 61.27 32.85V63.08C61.27 63.57 61.1 63.94 60.78 64.12C60.65 64.2 60.5 64.23 60.34 64.23ZM16 5.48002C15.89 5.48002 15.79 5.5 15.71 5.55C15.49 5.68 15.37 5.96 15.37 6.34V36.57C15.37 37.42 15.97 38.46 16.71 38.89L59.79 63.76C60.12 63.95 60.42 63.99 60.64 63.86C60.86 63.73 60.98 63.45 60.98 63.07V32.84C60.98 31.99 60.38 30.95 59.64 30.52L16.56 5.65C16.36 5.54 16.17 5.48002 16 5.48002Z" fill="#262028"/>
<path d="M63.19 35.21C63.11 35.21 63.04 35.14 63.04 35.06V34C63.04 33.92 63.11 33.85 63.19 33.85C63.27 33.85 63.34 33.92 63.34 34V35.06C63.34 35.14 63.27 35.21 63.19 35.21Z" fill="#262028"/>
<path d="M63.19 33.08C63.11 33.08 63.04 33.01 63.04 32.93C63.04 32.85 63.11 32.78 63.19 32.78C63.27 32.78 63.34 32.85 63.34 32.93C63.34 33.01 63.27 33.08 63.19 33.08Z" fill="#262028"/>
<path d="M63.12 32.15C63.05 32.15 62.99 32.1 62.97 32.03C62.8 31.23 62.33 30.39 61.73 29.82C61.67 29.76 61.67 29.67 61.73 29.61C61.79 29.55 61.88 29.55 61.94 29.61C62.59 30.23 63.08 31.12 63.26 31.98C63.27 32.06 63.22 32.14 63.14 32.16C63.13 32.16 63.12 32.16 63.11 32.16L63.12 32.15ZM60.97 29.24C60.97 29.24 60.92 29.24 60.9 29.22C60.83 29.18 60.8 29.09 60.84 29.02C60.88 28.95 60.98 28.92 61.04 28.96C61.07 28.98 61.1 29.01 61.11 29.05C61.12 29.09 61.11 29.13 61.1 29.16C61.07 29.2 61.02 29.23 60.97 29.23V29.24Z" fill="#262028"/>
<path d="M60.17 28.78C60.17 28.78 60.12 28.78 60.1 28.76L59.18 28.23C59.11 28.19 59.08 28.1 59.13 28.03C59.17 27.96 59.26 27.93 59.33 27.98L60.25 28.51C60.32 28.55 60.35 28.64 60.3 28.71C60.27 28.76 60.22 28.78 60.17 28.78Z" fill="#262028"/>
<path d="M15.74 1.59C16.01 1.59 16.31 1.67999 16.63 1.85999L62.63 28.41C63.73 29.04 64.61 30.58 64.61 31.84L64.52 65.3C64.52 65.93 64.3 66.37 63.94 66.57L62.53 67.39C62.53 67.39 62.57 67.36 62.6 67.34C62.6 67.34 62.51 67.4 62.46 67.42C62.46 67.42 62.36 67.46 62.31 67.48H62.3C62.3 67.48 62.2 67.51 62.15 67.51H62.13C62.13 67.51 62.06 67.51 62.03 67.51H61.95C61.95 67.51 61.85 67.5 61.8 67.49C61.78 67.49 61.77 67.49 61.75 67.49C61.7 67.49 61.65 67.47 61.61 67.45C61.59 67.45 61.57 67.45 61.55 67.43C61.5 67.41 61.45 67.39 61.4 67.37C61.38 67.37 61.36 67.36 61.34 67.35C61.27 67.32 61.2 67.28 61.13 67.24L43.67 57.16L44.05 59.33C44.19 59.4 44.33 59.48 44.47 59.56C46.53 60.76 47.56 62.33 47.56 63.9C47.56 63.9 47.56 63.89 47.56 63.88V65.36C47.56 66.95 46.52 68.53 44.43 69.74C42.35 70.94 39.63 71.54 36.91 71.54C34.19 71.54 31.47 70.94 29.4 69.74C27.35 68.55 26.32 66.98 26.31 65.42V63.94C26.31 63.94 26.31 64.03 26.31 64.08C26.24 62.45 27.29 60.81 29.44 59.56C30.47 58.96 31.67 58.52 32.94 58.21L31.52 50.14L15.13 40.68C14.58 40.36 14.09 39.82 13.73 39.2C13.37 38.58 13.15 37.88 13.15 37.25L13.24 3.79001C13.24 3.71001 13.24 3.64 13.25 3.56C13.25 3.52 13.26 3.49001 13.27 3.45001C13.27 3.42001 13.27 3.38001 13.28 3.35001C13.29 3.30001 13.3 3.25001 13.32 3.20001C13.32 3.19001 13.32 3.17 13.33 3.16C13.35 3.1 13.37 3.05 13.39 3C13.41 2.93 13.44 2.88 13.47 2.84C13.56 2.7 13.68 2.59001 13.81 2.51001L15.22 1.69C15.37 1.6 15.55 1.56 15.74 1.56V1.59ZM15.74 0.73999C15.39 0.73999 15.08 0.81999 14.79 0.98999L13.38 1.81L13.35 1.82999C13.11 1.96999 12.91 2.17 12.75 2.41V2.42999C12.69 2.50999 12.65 2.58001 12.61 2.67001C12.61 2.68001 12.6 2.69999 12.59 2.70999C12.56 2.77999 12.53 2.86 12.5 2.94C12.5 2.97 12.48 2.98999 12.48 3.01999C12.46 3.07999 12.44 3.15 12.43 3.22C12.43 3.26 12.42 3.3 12.41 3.34V3.38C12.41 3.38 12.39 3.47001 12.39 3.51001C12.39 3.61001 12.38 3.71001 12.38 3.82001L12.29 37.28C12.29 38.04 12.53 38.88 12.98 39.66C13.43 40.43 14.04 41.07 14.69 41.45L30.73 50.71L31.95 57.62C30.87 57.93 29.88 58.35 29 58.85C26.76 60.15 25.47 61.97 25.44 63.89C25.44 63.92 25.44 63.94 25.44 63.97V65.45C25.44 67.4 26.7 69.19 28.96 70.51C31.09 71.75 33.91 72.43 36.89 72.43C39.87 72.43 42.7 71.75 44.84 70.51C47.14 69.18 48.41 67.36 48.4 65.39V63.91C48.4 62.14 47.36 60.49 45.48 59.22L60.7 68.01C60.79 68.07 60.88 68.11 60.97 68.16C61 68.17 61.02 68.18 61.05 68.19C61.11 68.22 61.18 68.24 61.26 68.27C61.29 68.27 61.32 68.29 61.34 68.29C61.4 68.31 61.47 68.33 61.56 68.35C61.59 68.35 61.61 68.35 61.64 68.36C61.72 68.37 61.8 68.38 61.87 68.39C61.9 68.39 61.91 68.39 61.93 68.39C61.95 68.39 61.98 68.39 62 68.39C62.06 68.39 62.12 68.39 62.18 68.39H62.23C62.31 68.38 62.41 68.36 62.5 68.34H62.53C62.62 68.31 62.71 68.27 62.8 68.23L62.85 68.2C62.85 68.2 62.91 68.17 62.94 68.15L64.35 67.33C64.99 66.96 65.35 66.23 65.35 65.32L65.44 31.86C65.44 30.31 64.39 28.48 63.04 27.7L17.04 1.14999C16.6 0.889994 16.15 0.76001 15.72 0.76001L15.74 0.73999Z" fill="#262028"/>
<path d="M7.53 4.35002C7.53 3.18002 8.35 2.70002 9.37 3.29002L40.63 21.34C41.65 21.93 42.47 23.35 42.47 24.52V27.06L7.53 6.89003V4.35002Z" fill="#3A2C99"/>
<path d="M42.47 27.21C42.47 27.21 42.42 27.21 42.4 27.19L7.45999 7.02C7.45999 7.02 7.39001 6.94003 7.39001 6.89003V4.35002C7.39001 3.73002 7.61 3.26001 8 3.03001C8.4 2.80001 8.91001 2.85002 9.45001 3.16002L40.71 21.21C41.76 21.82 42.62 23.31 42.62 24.52V27.06C42.62 27.11 42.59 27.16 42.55 27.19C42.53 27.2 42.5 27.21 42.48 27.21H42.47ZM7.67999 6.8L42.32 26.8V24.52C42.32 23.4 41.53 22.03 40.56 21.46L9.29999 3.41002C8.85999 3.15002 8.44999 3.11001 8.14999 3.28001C7.84999 3.45001 7.69 3.83001 7.69 4.34001V6.8H7.67999Z" fill="#262028"/>
<path d="M42.47 27.06V48.29C42.47 49.46 41.65 49.94 40.63 49.35L9.37 31.3C8.35 30.71 7.53 29.29 7.53 28.12V6.89001L42.47 27.06Z" fill="white"/>
<path d="M41.46 49.75C41.18 49.75 40.88 49.66 40.56 49.48L9.29999 31.43C8.24999 30.82 7.39001 29.34 7.39001 28.12V6.89002C7.39001 6.84002 7.41999 6.79002 7.45999 6.76002C7.50999 6.73002 7.55999 6.73002 7.60999 6.76002L42.55 26.93C42.55 26.93 42.62 27.01 42.62 27.06V48.29C42.62 48.91 42.4 49.38 42.01 49.61C41.84 49.71 41.66 49.75 41.46 49.75ZM7.69 7.14002V28.11C7.69 29.23 8.48001 30.6 9.45001 31.16L40.71 49.21C41.15 49.47 41.56 49.51 41.86 49.34C42.16 49.17 42.32 48.79 42.32 48.28V27.13L7.67999 7.13001L7.69 7.14002Z" fill="#262028"/>
<path d="M31.51 33.4L40.66 38.68V28.12L31.51 22.84V33.4Z" fill="#3A2C99"/>
<path d="M40.66 38.83C40.66 38.83 40.61 38.83 40.59 38.81L31.44 33.53C31.44 33.53 31.37 33.45 31.37 33.4V22.84C31.37 22.79 31.4 22.74 31.44 22.71C31.49 22.68 31.54 22.68 31.59 22.71L40.74 27.99C40.74 27.99 40.81 28.07 40.81 28.12V38.68C40.81 38.73 40.78 38.78 40.74 38.81C40.72 38.82 40.69 38.83 40.67 38.83H40.66ZM31.66 33.31L40.51 38.42V28.2L31.66 23.09V33.31Z" fill="#262028"/>
<path d="M31.51 36.53L40.66 41.81V40.16L31.51 34.88V36.53Z" fill="#262028"/>
<path d="M40.66 41.92C40.66 41.92 40.62 41.92 40.61 41.91L31.46 36.63C31.46 36.63 31.41 36.58 31.41 36.54V34.89C31.41 34.89 31.43 34.82 31.46 34.8C31.49 34.78 31.53 34.78 31.57 34.8L40.72 40.08C40.72 40.08 40.77 40.13 40.77 40.17V41.82C40.77 41.82 40.75 41.89 40.72 41.91C40.7 41.91 40.69 41.92 40.67 41.92H40.66ZM31.62 36.47L40.56 41.63V40.22L31.62 35.06V36.47Z" fill="#262028"/>
<path d="M31.51 39.26L40.66 44.54V42.88L31.51 37.6V39.26Z" fill="#262028"/>
<path d="M40.66 44.64C40.66 44.64 40.62 44.64 40.61 44.63L31.46 39.35C31.46 39.35 31.41 39.3 31.41 39.26V37.61C31.41 37.61 31.43 37.54 31.46 37.52C31.49 37.5 31.53 37.5 31.57 37.52L40.72 42.8C40.72 42.8 40.77 42.85 40.77 42.89V44.54C40.77 44.54 40.75 44.61 40.72 44.63C40.7 44.63 40.69 44.64 40.67 44.64H40.66ZM31.62 39.19L40.56 44.35V42.94L31.62 37.78V39.19Z" fill="#262028"/>
<path d="M31.51 41.98L40.66 47.26V45.61L31.51 40.33V41.98Z" fill="#262028"/>
<path d="M40.66 47.37C40.66 47.37 40.62 47.37 40.61 47.36L31.46 42.08C31.46 42.08 31.41 42.03 31.41 41.99V40.34C31.41 40.34 31.43 40.27 31.46 40.25C31.49 40.23 31.53 40.23 31.57 40.25L40.72 45.53C40.72 45.53 40.77 45.58 40.77 45.62V47.27C40.77 47.27 40.75 47.34 40.72 47.36C40.7 47.36 40.69 47.37 40.67 47.37H40.66ZM31.62 41.92L40.56 47.08V45.67L31.62 40.51V41.92Z" fill="#262028"/>
<path d="M9.35001 11.7L29.87 23.54V21.89L9.35001 10.04V11.7Z" fill="#262028"/>
<path d="M29.87 23.65C29.87 23.65 29.83 23.65 29.82 23.64L9.29999 11.79C9.29999 11.79 9.25 11.74 9.25 11.7V10.05C9.25 10.05 9.26999 9.97998 9.29999 9.95998C9.32999 9.93998 9.37 9.93998 9.41 9.95998L29.93 21.81C29.93 21.81 29.98 21.86 29.98 21.9V23.55C29.98 23.55 29.96 23.62 29.93 23.64C29.91 23.64 29.9 23.65 29.88 23.65H29.87ZM9.45001 11.63L29.76 23.36V21.95L9.45001 10.22V11.63Z" fill="#262028"/>
<path d="M9.35001 14.67L29.87 26.51V24.86L9.35001 13.01V14.67Z" fill="#262028"/>
<path d="M29.87 26.62C29.87 26.62 29.83 26.62 29.82 26.61L9.29999 14.76C9.29999 14.76 9.25 14.71 9.25 14.67V13.02C9.25 13.02 9.26999 12.95 9.29999 12.93C9.32999 12.91 9.37 12.91 9.41 12.93L29.93 24.78C29.93 24.78 29.98 24.83 29.98 24.87V26.52C29.98 26.52 29.96 26.59 29.93 26.61C29.91 26.61 29.9 26.62 29.88 26.62H29.87ZM9.45001 14.6L29.76 26.33V24.92L9.45001 13.19V14.6Z" fill="#262028"/>
<path d="M9.35001 17.64L29.87 29.48V27.83L9.35001 15.98V17.64Z" fill="#262028"/>
<path d="M29.87 29.59C29.87 29.59 29.83 29.59 29.82 29.58L9.29999 17.73C9.29999 17.73 9.25 17.68 9.25 17.64V15.99C9.25 15.99 9.26999 15.92 9.29999 15.9C9.32999 15.88 9.37 15.88 9.41 15.9L29.93 27.75C29.93 27.75 29.98 27.8 29.98 27.84V29.49C29.98 29.49 29.96 29.56 29.93 29.58C29.91 29.58 29.9 29.59 29.88 29.59H29.87ZM9.45001 17.57L29.76 29.3V27.89L9.45001 16.16V17.57Z" fill="#262028"/>
<path d="M9.35001 20.61L29.87 32.45V30.8L9.35001 18.95V20.61Z" fill="#262028"/>
<path d="M29.87 32.56C29.87 32.56 29.83 32.56 29.82 32.55L9.29999 20.7C9.29999 20.7 9.25 20.65 9.25 20.61V18.96C9.25 18.96 9.26999 18.89 9.29999 18.87C9.32999 18.85 9.37 18.85 9.41 18.87L29.93 30.72C29.93 30.72 29.98 30.77 29.98 30.81V32.46C29.98 32.46 29.96 32.53 29.93 32.55C29.91 32.55 29.9 32.56 29.88 32.56H29.87ZM9.45001 20.54L29.76 32.27V30.86L9.45001 19.13V20.54Z" fill="#262028"/>
<path d="M9.35001 29.18L29.87 41.03V33.93L9.35001 22.08V29.18Z" fill="#FFD413"/>
<path d="M29.87 41.18C29.87 41.18 29.82 41.18 29.8 41.16L9.28 29.31C9.28 29.31 9.20999 29.23 9.20999 29.18V22.08C9.20999 22.03 9.24 21.98 9.28 21.95C9.33 21.92 9.37999 21.92 9.42999 21.95L29.95 33.8C29.95 33.8 30.02 33.88 30.02 33.93V41.03C30.02 41.08 29.99 41.13 29.95 41.16C29.93 41.17 29.9 41.18 29.88 41.18H29.87ZM9.5 29.1L29.72 40.78V34.02L9.5 22.34V29.1Z" fill="#262028"/>
<path d="M11.34 6.91C11.34 7.44 10.97 7.66002 10.5 7.39002C10.03 7.12002 9.66 6.47 9.66 5.94C9.66 5.41 10.03 5.18999 10.5 5.45999C10.96 5.72999 11.34 6.38 11.34 6.91Z" fill="white"/>
<path d="M10.87 7.64999C10.73 7.64999 10.58 7.59998 10.42 7.51998C9.91001 7.22998 9.51001 6.53 9.51001 5.94C9.51001 5.63 9.61999 5.38998 9.82999 5.26998C10.04 5.14998 10.3 5.16998 10.57 5.32998C11.08 5.62998 11.48 6.32 11.48 6.91C11.48 7.22 11.37 7.45998 11.16 7.57998C11.07 7.62998 10.97 7.66 10.87 7.66V7.64999ZM10.12 5.48999C10.07 5.48999 10.02 5.49999 9.98001 5.52999C9.87001 5.58999 9.81 5.74 9.81 5.94C9.81 6.42 10.16 7.02001 10.57 7.26001C10.75 7.36001 10.9 7.38 11.01 7.32C11.12 7.26 11.18 7.11 11.18 6.91C11.18 6.43 10.83 5.82999 10.42 5.58999C10.31 5.52999 10.21 5.5 10.12 5.5V5.48999Z" fill="#262028"/>
<path d="M13.97 8.43C13.97 8.96 13.6 9.18001 13.13 8.91001C12.66 8.64001 12.29 7.99 12.29 7.46C12.29 6.93 12.66 6.71002 13.13 6.98002C13.6 7.25002 13.97 7.9 13.97 8.43Z" fill="white"/>
<path d="M13.51 9.17001C13.37 9.17001 13.22 9.12 13.06 9.04C12.55 8.74 12.15 8.04999 12.15 7.45999C12.15 7.14999 12.26 6.91 12.47 6.79C12.68 6.67 12.94 6.69 13.21 6.85C13.72 7.15 14.12 7.83999 14.12 8.42999C14.12 8.73999 14.01 8.98 13.8 9.1C13.71 9.15 13.61 9.17999 13.51 9.17999V9.17001ZM12.76 7.01001C12.71 7.01001 12.66 7.01998 12.62 7.04998C12.51 7.10998 12.45 7.25999 12.45 7.45999C12.45 7.93999 12.8 8.53999 13.21 8.77999C13.39 8.87999 13.54 8.89999 13.65 8.83999C13.76 8.77999 13.82 8.62999 13.82 8.42999C13.82 7.94999 13.47 7.34998 13.06 7.10998C12.95 7.04998 12.85 7.01998 12.76 7.01998V7.01001Z" fill="#262028"/>
<path d="M16.61 9.95001C16.61 10.48 16.24 10.7 15.77 10.43C15.31 10.16 14.93 9.51001 14.93 8.98001C14.93 8.45001 15.3 8.23 15.77 8.5C16.23 8.77 16.61 9.42001 16.61 9.95001Z" fill="white"/>
<path d="M16.15 10.7C16.01 10.7 15.86 10.65 15.7 10.57C15.19 10.27 14.79 9.57999 14.79 8.98999C14.79 8.67999 14.9 8.44 15.11 8.32C15.32 8.2 15.58 8.22 15.85 8.38C16.36 8.68 16.76 9.36999 16.76 9.95999C16.76 10.27 16.65 10.51 16.44 10.63C16.35 10.68 16.25 10.71 16.15 10.71V10.7ZM15.4 8.54C15.35 8.54 15.3 8.54998 15.26 8.57998C15.15 8.63998 15.09 8.78999 15.09 8.98999C15.09 9.46999 15.44 10.07 15.85 10.31C16.03 10.41 16.18 10.43 16.29 10.37C16.4 10.31 16.46 10.16 16.46 9.95999C16.46 9.47999 16.11 8.88001 15.7 8.64001C15.59 8.58001 15.49 8.54998 15.4 8.54998V8.54Z" fill="#262028"/>
<path d="M56.27 75.25V76.1L58.83 74.62V73.77L56.27 75.25Z" fill="white"/>
<path d="M56.27 76.25C56.27 76.25 56.22 76.25 56.2 76.23C56.15 76.2 56.13 76.15 56.13 76.1V75.25C56.13 75.2 56.16 75.15 56.2 75.12L58.76 73.64C58.76 73.64 58.86 73.61 58.91 73.64C58.96 73.67 58.98 73.72 58.98 73.77V74.62C58.98 74.67 58.95 74.72 58.91 74.75L56.35 76.23C56.35 76.23 56.3 76.25 56.28 76.25H56.27ZM56.42 75.34V75.85L58.69 74.54V74.03L56.42 75.34Z" fill="#262028"/>
<path d="M56.08 75.52V76.37C56.08 76.27 56.15 76.17 56.27 76.1V75.25C56.14 75.32 56.07 75.42 56.08 75.52Z" fill="white"/>
<path d="M56.08 76.52C56 76.52 55.93 76.45 55.93 76.37V75.52C55.93 75.36 56.03 75.22 56.2 75.12C56.25 75.09 56.3 75.09 56.35 75.12C56.4 75.15 56.42 75.2 56.42 75.25V76.1C56.42 76.15 56.39 76.2 56.35 76.23C56.28 76.27 56.23 76.33 56.23 76.37C56.23 76.45 56.16 76.52 56.08 76.52Z" fill="#262028"/>
<path d="M56.08 75.52V76.37C56.08 76.27 56.15 76.17 56.27 76.1V75.25C56.14 75.32 56.07 75.42 56.08 75.52Z" fill="white"/>
<path d="M56.08 76.52C56 76.52 55.93 76.45 55.93 76.37V75.52C55.93 75.36 56.03 75.22 56.2 75.12C56.25 75.09 56.3 75.09 56.35 75.12C56.4 75.15 56.42 75.2 56.42 75.25V76.1C56.42 76.15 56.39 76.2 56.35 76.23C56.28 76.27 56.23 76.33 56.23 76.37C56.23 76.45 56.16 76.52 56.08 76.52Z" fill="#262028"/>
<path d="M53.95 76V76.85C53.95 77.14 54.05 77.43 54.24 77.7V76.85C54.05 76.58 53.96 76.29 53.95 76Z" fill="white"/>
<path d="M54.23 77.85C54.23 77.85 54.14 77.83 54.11 77.79C53.91 77.5 53.8 77.18 53.8 76.86V76.01C53.8 75.93 53.87 75.86 53.95 75.86C54.03 75.86 54.1 75.93 54.1 76.01C54.1 76.27 54.19 76.53 54.36 76.77C54.38 76.79 54.39 76.82 54.39 76.85V77.7C54.39 77.77 54.35 77.82 54.29 77.84C54.28 77.84 54.26 77.84 54.25 77.84L54.23 77.85Z" fill="#262028"/>
<path d="M53.95 76V76.85C53.95 77.14 54.05 77.43 54.24 77.7V76.85C54.05 76.58 53.96 76.29 53.95 76Z" fill="#262028"/>
<path d="M54.23 77.85C54.23 77.85 54.14 77.83 54.11 77.79C53.91 77.5 53.8 77.18 53.8 76.86V76.01C53.8 75.93 53.87 75.86 53.95 75.86C54.03 75.86 54.1 75.93 54.1 76.01C54.1 76.27 54.19 76.53 54.36 76.77C54.38 76.79 54.39 76.82 54.39 76.85V77.7C54.39 77.77 54.35 77.82 54.29 77.84C54.28 77.84 54.26 77.84 54.25 77.84L54.23 77.85Z" fill="#262028"/>
<path d="M61.83 75.98C61.83 76.57 61.44 77.16 60.67 77.6C59.51 78.27 57.82 78.44 56.4 78.1V78.95C57.82 79.28 59.51 79.12 60.67 78.45C61.45 78 61.83 77.41 61.83 76.83V75.98Z" fill="white"/>
<path d="M57.88 79.27C57.37 79.27 56.86 79.21 56.37 79.1C56.3 79.08 56.26 79.02 56.26 78.96V78.11C56.26 78.11 56.28 78.02 56.31 77.99C56.35 77.96 56.39 77.95 56.44 77.96C57.87 78.3 59.51 78.11 60.6 77.47C61.3 77.06 61.69 76.53 61.69 75.97C61.69 75.89 61.76 75.82 61.84 75.82C61.92 75.82 61.99 75.89 61.99 75.97V76.82C61.99 77.49 61.56 78.11 60.76 78.57C59.98 79.02 58.95 79.26 57.89 79.26L57.88 79.27ZM56.55 78.83C57.95 79.13 59.53 78.93 60.6 78.32C61.27 77.93 61.65 77.43 61.69 76.9C61.48 77.21 61.16 77.49 60.75 77.73C59.64 78.37 58.01 78.58 56.56 78.29V78.83H56.55Z" fill="#262028"/>
<path d="M56.4 78.11L46.17 84.01V84.86L56.4 78.96V78.11Z" fill="white"/>
<path d="M46.17 85.01C46.17 85.01 46.12 85.01 46.1 84.99C46.05 84.96 46.03 84.91 46.03 84.86V84.01C46.03 83.96 46.06 83.91 46.1 83.88L56.33 77.97C56.33 77.97 56.43 77.94 56.48 77.97C56.53 78 56.55 78.05 56.55 78.1V78.95C56.55 79 56.52 79.05 56.48 79.08L46.25 84.99C46.25 84.99 46.2 85.01 46.18 85.01H46.17ZM46.32 84.1V84.61L56.26 78.87V78.36L46.32 84.1Z" fill="#262028"/>
<path d="M44.97 84.16C44.97 83.98 44.85 83.79 44.61 83.65C44.13 83.37 43.34 83.37 42.85 83.65C42.6 83.79 42.48 83.98 42.48 84.16V85.01C42.48 84.82 42.6 84.64 42.85 84.5C43.34 84.22 44.12 84.22 44.61 84.5C44.85 84.64 44.97 84.82 44.97 85.01V84.16Z" fill="#262028"/>
<path d="M42.49 85.17C42.41 85.17 42.34 85.1 42.34 85.02V84.17C42.34 83.92 42.49 83.69 42.78 83.53C43.32 83.22 44.15 83.22 44.69 83.53C44.97 83.69 45.12 83.92 45.13 84.16V85.01C45.13 85.09 45.06 85.16 44.98 85.16C44.9 85.16 44.83 85.09 44.83 85.01C44.83 84.87 44.73 84.74 44.54 84.63C44.11 84.38 43.37 84.38 42.93 84.63C42.74 84.74 42.64 84.88 42.64 85.01C42.64 85.09 42.57 85.16 42.49 85.16V85.17ZM43.74 83.6C43.45 83.6 43.15 83.66 42.93 83.79C42.74 83.9 42.64 84.04 42.64 84.17V84.48C42.64 84.48 42.73 84.41 42.79 84.38C43.33 84.07 44.16 84.07 44.7 84.38C44.75 84.41 44.8 84.44 44.84 84.47V84.16C44.84 84.02 44.74 83.89 44.55 83.78C44.33 83.65 44.04 83.59 43.75 83.59L43.74 83.6Z" fill="#262028"/>
<path d="M46.18 84.16C46.18 84.53 45.94 84.89 45.46 85.17C44.5 85.72 42.95 85.72 42 85.17C41.53 84.89 41.29 84.53 41.29 84.17V85.02C41.29 85.38 41.53 85.74 42 86.02C42.95 86.57 44.5 86.57 45.46 86.02C45.94 85.74 46.18 85.38 46.18 85.01V84.16Z" fill="white"/>
<path d="M43.72 86.58C43.07 86.58 42.41 86.44 41.92 86.15C41.41 85.86 41.14 85.46 41.13 85.03V84.18C41.13 84.1 41.2 84.03 41.28 84.03C41.36 84.03 41.43 84.1 41.43 84.18C41.43 84.5 41.66 84.81 42.07 85.05C42.98 85.58 44.47 85.58 45.38 85.05C45.8 84.81 46.03 84.5 46.03 84.17C46.03 84.09 46.1 84.02 46.18 84.02C46.26 84.02 46.33 84.09 46.33 84.17V85.02C46.33 85.46 46.05 85.86 45.54 86.16C45.04 86.45 44.39 86.59 43.73 86.59L43.72 86.58ZM41.43 84.91V85.02C41.43 85.34 41.66 85.65 42.07 85.89C42.98 86.42 44.47 86.42 45.38 85.89C45.8 85.65 46.03 85.34 46.03 85.01V84.9C45.9 85.05 45.73 85.18 45.53 85.3C44.53 85.88 42.91 85.88 41.92 85.3C41.72 85.19 41.56 85.05 41.43 84.91Z" fill="#262028"/>
<path d="M44 82.75L54.23 76.84C53.66 76.02 53.95 75.04 55.11 74.37C56.12 73.79 57.54 73.58 58.83 73.77L56.27 75.25C56.11 75.35 56.04 75.48 56.1 75.61L56.51 76.51C56.57 76.64 56.74 76.74 56.97 76.78L58.53 77.02C58.75 77.05 58.99 77.02 59.16 76.92L61.72 75.44C62.03 76.19 61.68 77.01 60.67 77.59C59.51 78.26 57.82 78.43 56.4 78.09L46.17 84C46.24 84.41 46.01 84.84 45.46 85.15C44.5 85.7 42.95 85.7 42 85.15C41.05 84.6 41.05 83.7 42.01 83.14C42.56 82.82 43.29 82.69 44 82.73V82.75ZM44.61 84.67C45.1 84.39 45.1 83.93 44.61 83.65C44.13 83.37 43.34 83.37 42.85 83.65C42.36 83.93 42.36 84.39 42.85 84.67C43.33 84.95 44.12 84.95 44.61 84.67Z" fill="white"/>
<path d="M43.72 85.73C43.07 85.73 42.41 85.59 41.92 85.3C41.41 85.01 41.13 84.6 41.13 84.17C41.13 83.73 41.41 83.33 41.93 83.03C42.47 82.72 43.21 82.56 43.96 82.6L54.02 76.79C53.81 76.43 53.75 76.04 53.83 75.66C53.95 75.11 54.37 74.62 55.03 74.24C56.04 73.66 57.47 73.42 58.85 73.62C58.91 73.62 58.96 73.68 58.98 73.74C58.99 73.8 58.96 73.87 58.91 73.9L56.35 75.38C56.35 75.38 56.2 75.47 56.24 75.55L56.65 76.45C56.68 76.52 56.8 76.6 57 76.63L58.56 76.87C58.75 76.9 58.96 76.87 59.09 76.79L61.65 75.31C61.65 75.31 61.73 75.28 61.77 75.3C61.81 75.31 61.84 75.34 61.86 75.38C62.21 76.22 61.78 77.12 60.74 77.72C59.6 78.38 57.91 78.59 56.42 78.25L46.32 84.08C46.35 84.54 46.07 84.97 45.52 85.28C45.02 85.57 44.37 85.71 43.71 85.71L43.72 85.73ZM43.73 82.9C43.11 82.9 42.52 83.04 42.07 83.3C41.65 83.54 41.42 83.85 41.42 84.18C41.42 84.5 41.65 84.81 42.06 85.05C42.97 85.58 44.46 85.58 45.37 85.05C45.84 84.78 46.07 84.41 46.01 84.05C46 83.99 46.03 83.93 46.08 83.89L56.31 77.98C56.31 77.98 56.38 77.96 56.42 77.96C57.85 78.3 59.49 78.11 60.58 77.47C61.42 76.98 61.8 76.32 61.63 75.66L59.22 77.05C59.02 77.16 58.75 77.21 58.49 77.17L56.93 76.93C56.65 76.89 56.44 76.76 56.36 76.58L55.95 75.68C55.86 75.48 55.95 75.26 56.18 75.12L58.35 73.87C57.19 73.79 56.01 74.02 55.18 74.5C54.59 74.84 54.22 75.27 54.12 75.73C54.04 76.08 54.12 76.43 54.35 76.76C54.37 76.79 54.38 76.84 54.37 76.88C54.37 76.92 54.34 76.96 54.3 76.98L44.07 82.89C44.07 82.89 44.02 82.91 43.99 82.91C43.9 82.91 43.82 82.91 43.73 82.91V82.9ZM43.73 85.04C43.39 85.04 43.04 84.96 42.78 84.81C42.5 84.65 42.34 84.42 42.35 84.17C42.35 83.92 42.51 83.69 42.79 83.53C43.33 83.22 44.16 83.22 44.7 83.53C44.98 83.69 45.14 83.92 45.14 84.17C45.14 84.42 44.98 84.65 44.7 84.81C44.43 84.96 44.09 85.04 43.74 85.04H43.73ZM43.73 83.6C43.44 83.6 43.14 83.66 42.92 83.79C42.73 83.9 42.63 84.03 42.63 84.17C42.63 84.31 42.73 84.44 42.92 84.55C43.35 84.8 44.09 84.8 44.53 84.55C44.72 84.44 44.82 84.31 44.82 84.17C44.82 84.03 44.72 83.9 44.53 83.79C44.31 83.66 44.02 83.6 43.73 83.6Z" fill="#262028"/>
<path d="M6.48001 53.22L12.02 56.45L12.04 62.67L6.45999 65.9L0.920013 62.67L0.899994 56.45L6.48001 53.22ZM6.48001 52.92C6.43001 52.92 6.37999 52.93 6.32999 52.96L0.75 56.19C0.66 56.24 0.600006 56.34 0.600006 56.45L0.619995 62.67C0.619995 62.78 0.679989 62.87 0.769989 62.93L6.31 66.16C6.31 66.16 6.40999 66.2 6.45999 66.2C6.50999 66.2 6.55999 66.19 6.60999 66.16L12.19 62.93C12.28 62.88 12.34 62.78 12.34 62.67L12.32 56.45C12.32 56.34 12.26 56.25 12.17 56.19L6.63 52.96C6.63 52.96 6.53001 52.92 6.48001 52.92Z" fill="#262028"/>
<path d="M0.899994 56.45L6.44 59.68L12.02 56.45L6.48001 53.22L0.899994 56.45Z" fill="white"/>
<path d="M6.45999 65.9L0.920013 62.67L0.899994 56.45L6.44 59.68L6.45999 65.9Z" fill="#E2E1F2"/>
<path d="M12.02 56.45L12.04 62.67L6.45999 65.9L6.44 59.68L12.02 56.45Z" fill="#E2E1F2"/>
<path d="M6.45999 66.05C6.37999 66.05 6.31 65.98 6.31 65.9V62.79C6.31 62.71 6.37999 62.64 6.45999 62.64C6.53999 62.64 6.60999 62.71 6.60999 62.79V65.9C6.60999 65.98 6.53999 66.05 6.45999 66.05Z" fill="#262028"/>
<path d="M9.17999 58.23C9.12999 58.23 9.07998 58.2 9.04998 58.16C9.00998 58.09 9.03 58 9.1 57.96L11.94 56.33C12.01 56.29 12.1 56.31 12.14 56.38C12.18 56.45 12.16 56.54 12.09 56.58L9.25 58.21C9.25 58.21 9.19999 58.23 9.17999 58.23Z" fill="#262028"/>
<path d="M4.87001 58.91C4.87001 58.91 4.82 58.91 4.8 58.89L3.88002 58.35C3.81002 58.31 3.78 58.22 3.83 58.15C3.87 58.08 3.96001 58.06 4.03001 58.1L4.95003 58.64C5.02003 58.68 5.05001 58.77 5.00001 58.84C4.97001 58.89 4.92001 58.91 4.87001 58.91Z" fill="#262028"/>
<path d="M5.14001 59.1C5.07001 59.06 5.03998 58.97 5.07998 58.9C5.11998 58.83 5.20999 58.8 5.27999 58.85C5.34999 58.89 5.37998 58.98 5.32998 59.05C5.32998 59.05 5.25001 59.12 5.20001 59.12C5.20001 59.12 5.15 59.12 5.13 59.1H5.14001Z" fill="#262028"/>
<path d="M6.44002 59.83C6.44002 59.83 6.39001 59.83 6.37001 59.81L5.45003 59.27C5.38003 59.23 5.35001 59.14 5.40001 59.07C5.44001 59 5.53002 58.98 5.60002 59.02L6.44002 59.51L7.29002 59.02C7.36002 58.98 7.45 59 7.49 59.07C7.53 59.14 7.51002 59.23 7.44002 59.27L6.52 59.8C6.52 59.8 6.47003 59.82 6.45003 59.82L6.44002 59.83Z" fill="#262028"/>
<path d="M7.44001 59.1C7.40001 59.03 7.42001 58.94 7.50001 58.9C7.57001 58.86 7.66002 58.88 7.70002 58.96C7.74002 59.03 7.72001 59.12 7.65001 59.16C7.65001 59.16 7.6 59.18 7.58 59.18C7.53 59.18 7.48002 59.15 7.45002 59.11L7.44001 59.1Z" fill="#262028"/>
<path d="M7.76001 59.07C7.71001 59.07 7.66001 59.04 7.63001 59C7.59001 58.93 7.61 58.84 7.68 58.8L8.60001 58.27C8.67001 58.23 8.75999 58.25 8.79999 58.32C8.83999 58.39 8.82 58.48 8.75 58.52L7.82999 59.05C7.82999 59.05 7.78001 59.07 7.76001 59.07Z" fill="#262028"/>
<path d="M3.39001 58.05C3.39001 58.05 3.34 58.05 3.32 58.03L0.839987 56.58C0.769987 56.54 0.739999 56.45 0.789999 56.38C0.829999 56.31 0.919981 56.29 0.989981 56.33L3.46999 57.78C3.53999 57.82 3.56998 57.91 3.51998 57.98C3.48998 58.03 3.44001 58.05 3.39001 58.05Z" fill="#262028"/>
<path d="M6.45999 62.33C6.37999 62.33 6.31 62.26 6.31 62.18V61.12C6.31 61.04 6.37999 60.97 6.45999 60.97C6.53999 60.97 6.60999 61.04 6.60999 61.12V62.18C6.60999 62.26 6.53999 62.33 6.45999 62.33Z" fill="#262028"/>
<path d="M6.31 60.95V60.88C6.31 60.8 6.37999 60.73 6.45999 60.73C6.53999 60.73 6.60999 60.8 6.60999 60.88V60.95C6.60999 61.03 6.53999 61.1 6.45999 61.1C6.37999 61.1 6.31 61.03 6.31 60.95Z" fill="#262028"/>
<path d="M6.45999 60.96C6.37999 60.96 6.31 60.89 6.31 60.81V59.75C6.31 59.67 6.37999 59.6 6.45999 59.6C6.53999 59.6 6.60999 59.67 6.60999 59.75V60.81C6.60999 60.89 6.53999 60.96 6.45999 60.96Z" fill="#262028"/>
<path d="M66.54 43.57L52.83 35.66V29.09L66.54 37V43.57Z" fill="#FE4340"/>
<path d="M66.54 43.68C66.54 43.68 66.5 43.68 66.49 43.67L52.78 35.75C52.78 35.75 52.73 35.7 52.73 35.66V29.09C52.73 29.09 52.75 29.02 52.78 29C52.81 28.98 52.85 28.98 52.89 29L66.6 36.92C66.6 36.92 66.65 36.97 66.65 37.01V43.58C66.65 43.58 66.63 43.65 66.6 43.67C66.58 43.67 66.57 43.68 66.55 43.68H66.54ZM52.94 35.6L66.44 43.39V37.06L52.94 29.27V35.6Z" fill="#262028"/>
<path d="M56.6 36.33L55.97 35.97V34.46L54.75 33.75V35.26L54.12 34.9V31.37L54.75 31.73V33.16L55.97 33.87V32.44L56.6 32.8V36.33Z" fill="white"/>
<path d="M59.37 35L58.44 34.46V37.4L57.81 37.04V34.1L56.89 33.57V32.98L59.37 34.41V35Z" fill="white"/>
<path d="M60.55 35.09L61.33 38.1L62.11 35.99L62.93 36.46V39.99L62.3 39.63V38.67L62.36 37.04L61.54 39.19L61.11 38.94L60.29 35.84L60.35 37.54V38.5L59.72 38.14V34.61L60.54 35.08L60.55 35.09Z" fill="white"/>
<path d="M64.1 40.08L65.43 40.85V41.43L63.47 40.3V36.77L64.1 37.13V40.07V40.08Z" fill="white"/>
<path d="M57.1 47.87L45.56 41.21V34.64L57.1 41.3V47.87Z" fill="white"/>
<path d="M57.1 48.02C57.1 48.02 57.05 48.02 57.03 48L45.49 41.34C45.49 41.34 45.42 41.26 45.42 41.21V34.64C45.42 34.59 45.45 34.54 45.49 34.51C45.54 34.48 45.59 34.48 45.64 34.51L57.18 41.17C57.18 41.17 57.25 41.25 57.25 41.3V47.87C57.25 47.92 57.22 47.97 57.18 48C57.16 48.01 57.13 48.02 57.11 48.02H57.1ZM45.71 41.12L56.95 47.61V41.38L45.71 34.89V41.12Z" fill="#262028"/>
<path d="M49.73 40.95C49.7 41.36 49.57 41.61 49.33 41.72C49.09 41.82 48.77 41.76 48.37 41.53C47.94 41.28 47.59 40.91 47.34 40.43C47.09 39.95 46.97 39.41 46.97 38.82V38.58C46.97 38.2 47.03 37.9 47.14 37.68C47.25 37.46 47.42 37.33 47.63 37.3C47.84 37.27 48.09 37.34 48.37 37.5C48.76 37.73 49.08 38.03 49.31 38.41C49.55 38.79 49.69 39.21 49.72 39.67L49.02 39.27C49 39.01 48.94 38.79 48.84 38.61C48.74 38.44 48.58 38.29 48.36 38.16C48.13 38.03 47.95 38.02 47.84 38.15C47.72 38.28 47.66 38.54 47.66 38.95V39.25C47.66 39.67 47.72 40.02 47.83 40.28C47.94 40.54 48.12 40.74 48.35 40.88C48.57 41 48.73 41.04 48.83 40.99C48.94 40.94 49 40.8 49.01 40.57L49.71 40.97L49.73 40.95Z" fill="black"/>
<path d="M51.94 42.51C51.94 42.36 51.89 42.21 51.8 42.08C51.71 41.94 51.54 41.76 51.3 41.53C51.06 41.3 50.87 41.1 50.73 40.93C50.35 40.47 50.15 40.03 50.15 39.62C50.15 39.41 50.2 39.25 50.3 39.14C50.4 39.03 50.55 38.99 50.74 39.01C50.93 39.03 51.15 39.11 51.39 39.25C51.63 39.39 51.85 39.57 52.04 39.78C52.23 39.99 52.38 40.22 52.48 40.47C52.58 40.72 52.64 40.96 52.64 41.19L51.94 40.79C51.94 40.61 51.89 40.44 51.79 40.29C51.69 40.13 51.55 40 51.38 39.9C51.21 39.8 51.08 39.77 50.98 39.8C50.89 39.83 50.84 39.91 50.84 40.05C50.84 40.18 50.9 40.32 51.01 40.47C51.12 40.62 51.28 40.8 51.5 41C51.9 41.37 52.19 41.71 52.37 42.02C52.55 42.33 52.64 42.64 52.64 42.94C52.64 43.28 52.53 43.48 52.31 43.55C52.09 43.62 51.79 43.54 51.41 43.32C51.15 43.17 50.91 42.98 50.7 42.74C50.49 42.51 50.32 42.26 50.21 42C50.1 41.74 50.04 41.49 50.04 41.23L50.74 41.63C50.74 42.06 50.96 42.41 51.41 42.67C51.58 42.77 51.71 42.8 51.8 42.78C51.89 42.76 51.94 42.67 51.94 42.53V42.51Z" fill="black"/>
<path d="M54.87 44.2C54.87 44.05 54.82 43.9 54.73 43.77C54.64 43.63 54.47 43.45 54.23 43.22C53.99 42.99 53.8 42.79 53.66 42.62C53.28 42.16 53.08 41.72 53.08 41.31C53.08 41.1 53.13 40.94 53.23 40.83C53.33 40.72 53.48 40.68 53.67 40.7C53.86 40.72 54.08 40.8 54.32 40.94C54.56 41.08 54.78 41.26 54.97 41.47C55.16 41.68 55.31 41.91 55.41 42.16C55.51 42.41 55.57 42.65 55.57 42.88L54.87 42.48C54.87 42.3 54.82 42.13 54.72 41.98C54.62 41.83 54.48 41.69 54.31 41.59C54.14 41.49 54.01 41.46 53.91 41.49C53.82 41.52 53.77 41.6 53.77 41.74C53.77 41.87 53.83 42.01 53.94 42.16C54.05 42.31 54.21 42.49 54.43 42.69C54.83 43.06 55.12 43.4 55.3 43.71C55.48 44.02 55.57 44.33 55.57 44.63C55.57 44.97 55.46 45.17 55.24 45.24C55.02 45.31 54.72 45.23 54.34 45.01C54.08 44.86 53.84 44.67 53.63 44.43C53.42 44.2 53.25 43.95 53.14 43.69C53.03 43.43 52.97 43.18 52.97 42.92L53.67 43.32C53.67 43.75 53.89 44.1 54.34 44.36C54.51 44.46 54.64 44.49 54.73 44.47C54.82 44.45 54.87 44.36 54.87 44.22V44.2Z" fill="black"/>
<path d="M7.64001 49.9C7.64001 49.9 7.66 49.83 7.66 49.8C7.69 49.66 7.68 49.5 7.78 49.39C7.84 49.32 7.92 49.29 8 49.27C8.13 49.24 8.27001 49.24 8.39001 49.29C8.88001 49.45 9.03999 50.12 9.10999 50.57C9.15999 50.86 9.15 51.16 9.19 51.45C9.24 51.83 9.33001 52.21 9.45001 52.58C9.55001 52.89 10.11 53.92 10.21 54.16C10.35 54.46 9.76 54.75 9.62 54.59C9.47 54.42 8.57 53.73 8.44 53.48C8.1 52.81 7.86 52.09 7.72 51.35C7.65 50.97 7.6 50.59 7.59 50.21C7.59 50.1 7.61 50.02 7.63 49.92L7.64001 49.9Z" fill="white"/>
<path d="M9.75 54.77C9.66 54.77 9.57001 54.74 9.51001 54.68C9.46001 54.63 9.32 54.5 9.16 54.37C8.73 54 8.4 53.71 8.31 53.53C7.97 52.84 7.71999 52.11 7.57999 51.36C7.50999 50.97 7.46001 50.58 7.45001 50.19C7.45001 50.07 7.46999 49.97 7.48999 49.88L7.64001 49.9L7.5 49.86C7.5 49.86 7.50999 49.8 7.51999 49.76C7.51999 49.73 7.52 49.7 7.53 49.67C7.55 49.55 7.57001 49.4 7.67001 49.28C7.74001 49.2 7.84001 49.14 7.98001 49.11C8.14001 49.08 8.31001 49.08 8.45001 49.13C9.01001 49.32 9.18999 50.02 9.26999 50.53C9.29999 50.7 9.31001 50.86 9.32001 51.02C9.32001 51.16 9.34001 51.28 9.35001 51.41C9.40001 51.78 9.48001 52.15 9.60001 52.51C9.66001 52.71 9.94 53.24 10.13 53.62C10.23 53.82 10.32 53.99 10.36 54.07C10.45 54.27 10.36 54.48 10.13 54.63C10.02 54.7 9.88 54.75 9.75 54.75V54.77ZM8.17001 49.4C8.17001 49.4 8.08 49.4 8.03 49.41C7.96 49.42 7.92001 49.45 7.89001 49.48C7.84001 49.53 7.83001 49.62 7.82001 49.72C7.82001 49.76 7.81999 49.79 7.79999 49.83C7.79999 49.87 7.78 49.91 7.78 49.94V49.96C7.76 50.04 7.73999 50.1 7.73999 50.19C7.75999 50.56 7.8 50.94 7.87 51.31C8.01 52.04 8.24999 52.74 8.57999 53.4C8.64999 53.54 9.08999 53.92 9.35999 54.15C9.53999 54.3 9.67001 54.42 9.73001 54.48C9.76001 54.48 9.92 54.45 10.03 54.34C10.1 54.26 10.08 54.22 10.08 54.21C10.04 54.13 9.95999 53.97 9.85999 53.77C9.64999 53.35 9.38 52.83 9.31 52.61C9.19 52.24 9.09999 51.85 9.04999 51.46C9.02999 51.32 9.02001 51.18 9.01001 51.05C9.01001 50.89 8.99 50.74 8.97 50.59C8.9 50.16 8.76001 49.56 8.35001 49.43C8.30001 49.41 8.23999 49.4 8.17999 49.4H8.17001Z" fill="#262028"/>
<path d="M11.36 61.71C11.41 61.72 11.46 61.75 11.52 61.78C11.63 61.83 11.73 61.89 11.84 61.95C12.05 62.07 12.26 62.19 12.47 62.32C12.57 62.38 12.67 62.4 12.76 62.48C12.83 62.54 12.94 62.68 12.95 62.78C12.96 62.91 12.69 63.02 12.59 63.05C12.45 63.1 12.31 63.11 12.16 63.09C12.01 63.07 11.92 63 11.82 62.89C11.73 62.79 11.65 62.68 11.52 62.64C11.4 62.6 11.26 62.62 11.17 62.53C11.07 62.43 11.02 62.3 11.02 62.16C11.02 61.99 11.11 61.83 11.25 61.74C11.29 61.71 11.34 61.71 11.38 61.72L11.36 61.71Z" fill="#262028"/>
<path d="M12.29 63.24C12.24 63.24 12.18 63.24 12.13 63.23C11.96 63.2 11.83 63.13 11.7 62.98L11.67 62.95C11.6 62.87 11.54 62.8 11.46 62.77C11.43 62.76 11.39 62.76 11.36 62.75C11.26 62.74 11.14 62.72 11.05 62.62C10.92 62.49 10.85 62.32 10.85 62.15C10.85 61.92 10.96 61.72 11.15 61.6C11.22 61.56 11.3 61.54 11.39 61.56C11.45 61.57 11.5 61.6 11.54 61.62L11.57 61.64C11.68 61.69 11.79 61.75 11.9 61.81C12.11 61.93 12.32 62.05 12.53 62.18C12.57 62.2 12.61 62.22 12.64 62.23C12.7 62.26 12.78 62.29 12.85 62.35C12.93 62.41 13.08 62.58 13.09 62.75C13.11 62.97 12.85 63.11 12.63 63.18C12.52 63.22 12.4 63.24 12.29 63.24ZM11.32 61.85C11.22 61.91 11.16 62.03 11.16 62.15C11.16 62.25 11.2 62.34 11.27 62.42C11.29 62.44 11.34 62.45 11.41 62.46C11.46 62.46 11.51 62.47 11.57 62.49C11.72 62.54 11.82 62.65 11.9 62.75L11.93 62.78C12.02 62.88 12.08 62.92 12.18 62.93C12.3 62.95 12.42 62.93 12.55 62.9C12.69 62.85 12.78 62.8 12.81 62.77C12.8 62.72 12.74 62.64 12.68 62.59C12.64 62.56 12.6 62.54 12.55 62.52C12.5 62.5 12.46 62.48 12.41 62.45C12.2 62.32 12 62.2 11.79 62.08C11.69 62.02 11.58 61.97 11.48 61.91L11.44 61.89C11.44 61.89 11.38 61.86 11.36 61.85H11.32Z" fill="#262028"/>
<path d="M9.29999 62.64C9.44999 62.64 9.58999 62.69 9.70999 62.77C9.77999 62.82 9.82001 62.9 9.89001 62.95C9.96001 63.01 10.03 63.07 10.1 63.12C10.21 63.21 10.31 63.3 10.42 63.38C10.52 63.46 10.62 63.55 10.71 63.65C10.78 63.73 10.88 63.84 10.87 63.95C10.87 64.1 10.55 64.17 10.43 64.19C10.26 64.22 10.11 64.21 9.95001 64.16C9.79001 64.11 9.69999 64.02 9.60999 63.89C9.52999 63.77 9.45001 63.63 9.32001 63.57C9.20001 63.51 9.04001 63.51 8.95001 63.4C8.87001 63.3 8.85001 63.16 8.85001 63.04C8.85001 62.94 8.87 62.83 8.94 62.76C9 62.69 9.1 62.65 9.19 62.64C9.22 62.64 9.23999 62.64 9.26999 62.64H9.29999Z" fill="#262028"/>
<path d="M10.26 64.37C10.14 64.37 10.03 64.35 9.92001 64.32C9.70001 64.25 9.58 64.11 9.5 63.99L9.47 63.95C9.41 63.85 9.34999 63.76 9.26999 63.72C9.23999 63.7 9.19999 63.69 9.14999 63.68C9.04999 63.65 8.94001 63.62 8.85001 63.51C8.77001 63.4 8.72 63.25 8.72 63.06C8.72 62.91 8.76001 62.77 8.85001 62.67C8.93001 62.58 9.05 62.52 9.19 62.5C9.22 62.5 9.26001 62.5 9.29001 62.5C9.46001 62.5 9.64001 62.55 9.79001 62.66C9.84001 62.7 9.88001 62.74 9.92001 62.78C9.94001 62.8 9.96001 62.83 9.98001 62.85C10.03 62.89 10.08 62.93 10.12 62.97L10.19 63.02C10.28 63.09 10.37 63.16 10.45 63.24L10.51 63.29C10.61 63.37 10.72 63.46 10.82 63.58C10.9 63.67 11.03 63.81 11.02 63.99C11.01 64.24 10.66 64.33 10.46 64.37C10.39 64.38 10.32 64.39 10.25 64.39L10.26 64.37ZM9.31 62.79C9.31 62.79 9.27 62.79 9.25 62.79C9.18 62.8 9.11999 62.83 9.07999 62.87C9.03999 62.91 9.02 62.98 9.03 63.05C9.03 63.17 9.06001 63.27 9.10001 63.32C9.12001 63.35 9.18 63.37 9.25 63.39C9.3 63.41 9.36001 63.42 9.42001 63.45C9.57001 63.53 9.65999 63.66 9.73999 63.78L9.76999 63.82C9.84999 63.94 9.92 64 10.03 64.03C10.17 64.07 10.3 64.08 10.44 64.06C10.62 64.03 10.74 63.97 10.76 63.94C10.76 63.9 10.68 63.81 10.63 63.76C10.55 63.67 10.45 63.58 10.35 63.51L10.29 63.46C10.2 63.39 10.12 63.32 10.03 63.24L9.95999 63.19C9.90999 63.15 9.86 63.11 9.81 63.07C9.78 63.04 9.75 63.01 9.72 62.97C9.69 62.94 9.67001 62.91 9.64001 62.89C9.55001 62.82 9.43999 62.79 9.32999 62.79H9.31Z" fill="#262028"/>
<path d="M5.37 54.26C5.4 54.46 5.41001 54.66 5.42001 54.85C5.42001 54.65 5.39 54.45 5.37 54.26Z" fill="#FFBFA2"/>
<path d="M6.51999 55.38C6.51999 55.3 6.53999 55.22 6.57999 55.15C6.68999 54.95 7.03 54.94 7.22 54.93C8.53 54.86 9.90001 55.48 10.92 56.27C11.16 56.45 11.39 56.66 11.56 56.9C11.84 57.28 11.91 57.72 11.96 58.18C12.02 58.85 12.02 59.53 11.97 60.21C11.95 60.55 11.85 61.91 11.8 62.02C11.64 62.39 11.16 62.23 11.1 62.1C10.96 61.84 10.87 60.31 10.83 59.96C10.76 59.3 10.67 58.59 10.24 58.09C9.81999 57.61 9.02999 57.26 8.39999 57.11C7.87999 56.99 7.46001 57.04 7.01001 56.73C6.64001 56.47 6.49 55.8 6.53 55.38H6.51999Z" fill="#262028"/>
<path d="M11.45 62.39C11.25 62.39 11.03 62.29 10.96 62.17C10.86 61.97 10.79 61.34 10.7 60.31C10.69 60.16 10.68 60.05 10.67 59.98C10.6 59.27 10.5 58.64 10.11 58.2C9.70999 57.75 8.94002 57.4 8.35002 57.27C8.20002 57.23 8.05001 57.21 7.91001 57.19C7.57001 57.14 7.25001 57.1 6.91001 56.86C6.47001 56.55 6.32999 55.81 6.35999 55.37C6.35999 55.29 6.38 55.18 6.43 55.09C6.57 54.82 6.96 54.8 7.18 54.79C8.39 54.73 9.78 55.23 10.99 56.17C11.18 56.31 11.45 56.54 11.66 56.83C11.97 57.25 12.04 57.75 12.08 58.18C12.14 58.81 12.14 59.48 12.09 60.23C12.06 60.63 11.97 61.95 11.91 62.09C11.83 62.28 11.66 62.4 11.45 62.41H11.42L11.45 62.39ZM6.67002 55.39C6.64002 55.81 6.80001 56.4 7.09001 56.61C7.37001 56.81 7.64002 56.84 7.95002 56.89C8.10002 56.91 8.25002 56.93 8.42002 56.97C9.01002 57.11 9.86 57.46 10.33 58C10.78 58.51 10.88 59.19 10.96 59.95C10.96 60.02 10.98 60.14 10.99 60.29C11.03 60.76 11.12 61.86 11.21 62.03C11.23 62.05 11.36 62.11 11.48 62.09C11.56 62.08 11.61 62.04 11.65 61.96C11.68 61.85 11.76 60.87 11.81 60.2C11.86 59.46 11.86 58.8 11.8 58.19C11.76 57.78 11.7 57.35 11.43 56.99C11.28 56.79 11.09 56.61 10.81 56.39C9.68001 55.51 8.33 55.02 7.21 55.08C7.06 55.08 6.76002 55.1 6.70002 55.22C6.67002 55.27 6.67001 55.33 6.66001 55.39H6.67002Z" fill="#262028"/>
<path d="M5.17002 55.98C5.19002 55.82 5.22001 55.12 5.35001 55.04C5.44001 54.98 5.95001 55.15 6.07001 55.17C6.67001 55.26 7.34999 55.21 7.73999 55.76C7.85999 55.94 7.95001 56.14 8.07001 56.32C8.26001 56.63 8.53001 56.88 8.79001 57.13C9.18001 57.49 9.56999 57.85 9.82999 58.32C10.1 58.81 10.21 59.38 10.21 59.93C10.21 60.35 9.97999 62.83 9.73999 63.05C9.49999 63.26 9.18999 63.12 9.07999 62.98C8.98999 62.87 8.95999 62.63 8.95999 62.49C8.95999 62.25 8.93001 60.38 8.82001 59.87C8.75001 59.53 8.61002 59.21 8.39002 58.94C7.97002 58.42 5.96 58.19 5.28 57.16C5.05 56.8 5.13001 56.39 5.19001 55.97L5.17002 55.98Z" fill="#262028"/>
<path d="M9.44 63.31C9.44 63.31 9.40999 63.31 9.39999 63.31C9.18999 63.3 9.02 63.18 8.94 63.08C8.79 62.91 8.79001 62.56 8.79001 62.5C8.79001 62.21 8.75999 60.39 8.64999 59.91C8.56999 59.57 8.44 59.27 8.25 59.04C8.11 58.86 7.66999 58.7 7.20999 58.52C6.46999 58.24 5.56 57.9 5.13 57.24C4.89 56.86 4.95 56.45 5 56.04V55.95C5 55.95 5.02 55.87 5.03 55.8C5.08 55.25 5.12001 54.99 5.26001 54.91C5.36001 54.84 5.52001 54.87 5.92001 54.98C5.99001 55 6.04998 55.02 6.07998 55.02C6.18998 55.04 6.31001 55.05 6.42001 55.06C6.92001 55.11 7.48999 55.17 7.83999 55.68C7.90999 55.79 7.97 55.9 8.03 56C8.07 56.08 8.12001 56.16 8.17001 56.24C8.35001 56.53 8.59998 56.77 8.85998 57.02L8.88 57.04C9.26 57.4 9.66001 57.77 9.92001 58.25C10.18 58.72 10.31 59.3 10.32 59.93C10.32 60.17 10.13 62.87 9.79999 63.16C9.68999 63.25 9.56999 63.3 9.42999 63.3L9.44 63.31ZM5.42999 55.18C5.37999 55.31 5.33998 55.7 5.32998 55.84C5.32998 55.91 5.32 55.97 5.31 56V56.09C5.25 56.45 5.2 56.8 5.38 57.08C5.75 57.65 6.62 57.98 7.32 58.24C7.84 58.44 8.29001 58.61 8.48001 58.85C8.70001 59.12 8.85 59.45 8.94 59.84C9.06 60.38 9.08999 62.29 9.08999 62.49C9.08999 62.65 9.13001 62.83 9.17001 62.88C9.22001 62.94 9.32001 63 9.42001 63C9.50001 63 9.55999 62.98 9.61999 62.93C9.80999 62.71 10.05 60.44 10.05 59.92C10.05 59.34 9.92 58.81 9.69 58.38C9.45 57.94 9.08999 57.6 8.70999 57.25L8.69 57.23C8.43 56.98 8.15001 56.72 7.95001 56.39C7.90001 56.31 7.84999 56.22 7.79999 56.14C7.73999 56.03 7.68999 55.93 7.61999 55.84C7.34999 55.45 6.89 55.4 6.41 55.35C6.29 55.34 6.16999 55.33 6.04999 55.31C6.00999 55.31 5.94 55.29 5.85 55.26C5.75 55.23 5.52999 55.17 5.42999 55.17V55.18Z" fill="#262028"/>
<path d="M5.14001 55.38C5.12001 55.75 5.21999 56.05 5.58999 56.15C5.86999 56.22 7.65998 56.45 8.64998 55.55C8.79998 55.41 8.77 55.21 8.76 55.04C8.74 54.64 8.63 50.8 8.45 49.9C8.42 49.73 8.36998 49.55 8.23998 49.45C8.06998 49.32 7.51998 49.24 7.29998 49.29C6.88998 49.38 6.59999 49.4 6.21999 49.57C5.91999 49.71 5.26999 50 5.05999 50.38C4.69999 51.05 5.16001 54.88 5.14001 55.37V55.38Z" fill="white"/>
<path d="M6.46 56.38C6.02 56.38 5.66999 56.33 5.54999 56.29C5.15999 56.18 4.96999 55.87 4.98999 55.37C4.98999 55.24 4.96 54.82 4.93 54.34C4.79 52.49 4.68 50.8 4.93 50.32C5.15 49.91 5.78 49.62 6.12 49.46L6.16001 49.44C6.46001 49.3 6.69001 49.26 6.97001 49.21C7.06001 49.19 7.15999 49.17 7.26999 49.15C7.50999 49.1 8.10999 49.17 8.32999 49.34C8.51999 49.49 8.57001 49.73 8.60001 49.88C8.75001 50.63 8.85002 53.4 8.89002 54.57C8.89002 54.8 8.90001 54.97 8.91001 55.04V55.09C8.92001 55.26 8.94 55.5 8.75 55.67C8.11 56.25 7.17 56.39 6.46 56.39V56.38ZM5.29001 55.38C5.27001 55.84 5.45001 55.95 5.63001 56C5.91001 56.07 7.61999 56.28 8.54999 55.43C8.62999 55.36 8.63 55.26 8.62 55.09V55.04C8.62 54.97 8.61001 54.8 8.60001 54.57C8.56001 53.5 8.46 50.65 8.31 49.92C8.28 49.77 8.24 49.63 8.15 49.55C8.02 49.45 7.52 49.38 7.34 49.42C7.23 49.44 7.12 49.46 7.03 49.48C6.77 49.53 6.56001 49.57 6.29001 49.69L6.25 49.71C5.97 49.84 5.38002 50.11 5.20002 50.44C4.96002 50.88 5.14002 53.1 5.23002 54.3C5.27002 54.84 5.30001 55.22 5.29001 55.37V55.38Z" fill="#262028"/>
<path d="M6.23999 49.69C6.23999 50.46 7.69999 50.42 7.64999 49.69C7.57999 48.68 7.52 48.56 7.03 48.42C6.9 48.38 6.76 48.35 6.62 48.36C6.12 48.36 6.32001 48.62 6.35001 48.8C6.43001 49.33 6.23999 49.41 6.23999 49.69Z" fill="white"/>
<path d="M6.95001 50.4C6.78001 50.4 6.59999 50.36 6.45999 50.28C6.22999 50.15 6.1 49.94 6.09 49.68C6.09 49.55 6.11999 49.45 6.14999 49.36C6.18999 49.23 6.24001 49.1 6.20001 48.81C6.20001 48.78 6.18999 48.75 6.17999 48.72C6.14999 48.62 6.1 48.48 6.19 48.36C6.29 48.23 6.48 48.21 6.62 48.21C6.76 48.21 6.90001 48.23 7.07001 48.28C7.66001 48.45 7.73001 48.66 7.79001 49.68C7.81001 49.91 7.69999 50.12 7.48999 50.25C7.32999 50.35 7.14 50.4 6.94 50.4H6.95001ZM6.39001 49.68C6.39001 49.83 6.46001 49.94 6.60001 50.02C6.81001 50.14 7.14 50.13 7.34 50C7.45 49.93 7.51 49.83 7.5 49.7C7.43 48.69 7.36999 48.68 6.98999 48.57C6.84999 48.53 6.73 48.51 6.62 48.51C6.46 48.51 6.42001 48.54 6.42001 48.54C6.42001 48.54 6.44001 48.6 6.45001 48.64C6.46001 48.69 6.47999 48.73 6.48999 48.78C6.53999 49.14 6.48999 49.32 6.42999 49.47C6.39999 49.55 6.38 49.61 6.38 49.69L6.39001 49.68Z" fill="#262028"/>
<path d="M6.35999 48.21C6.14999 48.21 6.11002 48.46 6.26002 48.65C6.30002 48.71 6.38 48.75 6.43 48.8C6.81 49.1 6.89 48.76 6.77 48.65C6.49 48.41 6.61999 48.21 6.35999 48.21Z" fill="#FFC7AD"/>
<path d="M6.70001 49.07C6.61001 49.07 6.5 49.03 6.35 48.92L6.30999 48.89C6.25999 48.85 6.19999 48.8 6.14999 48.75C6.02999 48.59 6 48.39 6.07 48.24C6.13 48.13 6.23999 48.06 6.36999 48.07C6.60999 48.07 6.66998 48.22 6.70998 48.32C6.73998 48.39 6.76999 48.47 6.86999 48.55C6.98999 48.65 7.01 48.85 6.91 48.98C6.88 49.01 6.81001 49.08 6.70001 49.08V49.07ZM6.35998 48.36C6.35998 48.36 6.33999 48.36 6.33999 48.37C6.31999 48.4 6.33001 48.48 6.39001 48.56C6.41001 48.59 6.44998 48.62 6.48998 48.65L6.54 48.68C6.59 48.72 6.63 48.75 6.66 48.76C6.53 48.62 6.48 48.51 6.44 48.43C6.43 48.41 6.42 48.37 6.41 48.37C6.41 48.37 6.39999 48.37 6.36999 48.37L6.35998 48.36Z" fill="#262028"/>
<path d="M8.32999 47.47C8.53999 48.36 8.25001 49.53 7.66001 49.66C7.07001 49.8 6.43002 49.19 6.23002 48.3C6.02002 47.41 6.33001 46.58 6.91001 46.44C7.50001 46.3 8.11999 46.58 8.32999 47.47Z" fill="white"/>
<path d="M7.48998 49.83C7.21998 49.83 6.94 49.71 6.7 49.47C6.41 49.19 6.18997 48.79 6.07997 48.33C5.84997 47.36 6.20999 46.45 6.87999 46.29C7.45999 46.15 8.22999 46.37 8.46999 47.43C8.68999 48.37 8.38999 49.64 7.68999 49.8C7.61999 49.82 7.55998 49.82 7.48998 49.82V49.83ZM7.18999 46.56C7.10999 46.56 7.03 46.57 6.95 46.59C6.45 46.71 6.18999 47.47 6.37999 48.27C6.46999 48.67 6.65999 49.02 6.90999 49.26C7.13999 49.48 7.39999 49.58 7.62999 49.52C8.08999 49.41 8.37998 48.36 8.17998 47.51C8.01998 46.81 7.58999 46.56 7.18999 46.56Z" fill="#262028"/>
<path d="M7.12999 47.48C7.12999 47.48 7.08 47.58 7.07 47.63C7.04 47.79 7.02999 47.95 7.02999 48.11C7.02999 48.18 7.00999 48.39 6.87999 48.35C6.81999 48.34 6.78999 48.25 6.74999 48.21C6.68999 48.15 6.59998 48.12 6.51998 48.16C6.41998 48.21 6.43 48.34 6.45 48.44C6.47 48.51 6.49 48.58 6.51 48.65C6.53 48.72 6.53 48.8 6.51 48.86C6.47 48.95 6.33999 49.03 6.24999 48.97C6.02999 48.8 5.86999 48.55 5.77999 48.29C5.64999 47.91 5.57998 47.41 5.82998 47.06C5.89998 46.97 5.98 46.88 6.07 46.81C6.09 46.79 6.17999 46.75 6.18999 46.73C6.18999 46.73 6.39 46.28 6.98 46.25C7.76 46.2 8.2 46.75 8.29 46.9C8.4 47.08 8.53999 47.46 8.30999 47.61C8.22999 47.66 8.13 47.68 8.04 47.69C7.94 47.7 7.82999 47.71 7.71999 47.7C7.60999 47.69 7.50998 47.66 7.42998 47.59C7.34998 47.53 7.24998 47.38 7.14998 47.47L7.12999 47.48Z" fill="#FFD413"/>
<path d="M6.30998 49.15C6.24998 49.15 6.18998 49.13 6.14998 49.09C5.91998 48.91 5.73999 48.65 5.62999 48.34C5.53999 48.08 5.37 47.44 5.7 46.98C5.77 46.88 5.85999 46.78 5.96999 46.7C5.97999 46.7 5.99998 46.68 6.02998 46.66C6.03998 46.66 6.05999 46.65 6.06999 46.64C6.15999 46.47 6.43998 46.14 6.95998 46.1C7.91998 46.04 8.38999 46.79 8.40999 46.82C8.54999 47.04 8.72 47.51 8.39 47.73C8.28 47.8 8.15997 47.82 8.04997 47.83C7.94997 47.84 7.82 47.85 7.7 47.84C7.56 47.83 7.42997 47.78 7.32997 47.71C7.30997 47.69 7.28999 47.67 7.25999 47.65C7.24999 47.64 7.22999 47.62 7.21999 47.61C7.21999 47.61 7.21999 47.63 7.21999 47.65C7.18999 47.8 7.18999 47.96 7.18999 48.1C7.18999 48.17 7.17998 48.36 7.05998 48.45C6.99998 48.49 6.92997 48.51 6.85997 48.49C6.76997 48.47 6.70998 48.39 6.67998 48.34C6.67998 48.33 6.66999 48.32 6.65999 48.31C6.63999 48.29 6.61997 48.28 6.60997 48.29C6.60997 48.29 6.59997 48.34 6.60997 48.4C6.60997 48.43 6.63 48.46 6.64 48.49C6.65 48.53 6.66 48.56 6.67 48.6C6.7 48.72 6.68999 48.82 6.65999 48.9C6.61999 49 6.51999 49.08 6.40999 49.11C6.37999 49.11 6.35997 49.12 6.32997 49.12L6.30998 49.15ZM6.30998 46.8C6.27998 46.86 6.23 46.89 6.17 46.93H6.14998C6.06998 47.01 6 47.08 5.95 47.16C5.7 47.51 5.85 48.04 5.92 48.26C6.01 48.51 6.14998 48.73 6.33998 48.87C6.33998 48.87 6.35998 48.84 6.36998 48.82C6.37998 48.79 6.37998 48.75 6.36998 48.7C6.36998 48.67 6.34998 48.64 6.33998 48.61C6.32998 48.57 6.31998 48.53 6.30998 48.49C6.25998 48.29 6.30998 48.12 6.45998 48.05C6.58998 47.98 6.75998 48.01 6.86998 48.13L6.89 48.15V48.13C6.89 47.98 6.88998 47.8 6.92998 47.62C6.93998 47.55 6.96999 47.46 7.03999 47.4H7.04997C7.23997 47.23 7.42 47.4 7.48 47.46C7.49 47.47 7.50997 47.49 7.51997 47.5C7.56997 47.54 7.64998 47.57 7.73997 47.58C7.82997 47.58 7.92997 47.58 8.01997 47.57C8.09997 47.57 8.18 47.55 8.23 47.51C8.34 47.44 8.25999 47.17 8.15999 47.01C8.15999 47.01 7.76 46.39 6.98 46.43C6.5 46.46 6.32999 46.8 6.31999 46.82L6.30998 46.8ZM6.05998 46.65C6.05998 46.65 6.04999 46.67 6.03999 46.68V46.65H6.05998Z" fill="#262028"/>
<path d="M12.74 56.05L8.98001 58.24L6.64001 56.89L10.41 54.71L12.74 56.05Z" fill="white"/>
<path d="M8.98001 58.39C8.98001 58.39 8.93 58.39 8.91 58.37L6.57999 57.02C6.57999 57.02 6.51001 56.94 6.51001 56.89C6.51001 56.84 6.53999 56.79 6.57999 56.76L10.34 54.57C10.34 54.57 10.44 54.54 10.49 54.57L12.82 55.92C12.82 55.92 12.89 56 12.89 56.05C12.89 56.1 12.86 56.15 12.82 56.18L9.06 58.37C9.06 58.37 9.00999 58.39 8.98999 58.39H8.98001ZM6.94 56.89L8.98001 58.07L12.44 56.06L10.4 54.88L6.94 56.89Z" fill="#262028"/>
<path d="M9.76999 55.84L8.84 56.37L8.34 56.08L9.26001 55.55L9.76999 55.84Z" fill="#262028"/>
<path d="M11.02 55.53C11.02 55.53 11 55.55 11.02 55.56L11.18 55.65C11.18 55.65 11.22 55.65 11.23 55.65L11.39 55.56C11.39 55.56 11.41 55.54 11.39 55.53L11.23 55.44C11.23 55.44 11.19 55.44 11.17 55.44L11.01 55.53H11.02Z" fill="#262028"/>
<path d="M10.76 55.68C10.76 55.68 10.74 55.7 10.76 55.71L10.92 55.8C10.92 55.8 10.96 55.8 10.97 55.8L11.13 55.71C11.13 55.71 11.15 55.69 11.13 55.68L10.97 55.59C10.97 55.59 10.93 55.59 10.91 55.59L10.75 55.68H10.76Z" fill="#262028"/>
<path d="M10.52 55.82C10.52 55.82 10.5 55.84 10.52 55.85L10.68 55.94C10.68 55.94 10.72 55.94 10.74 55.94L10.9 55.85C10.9 55.85 10.92 55.83 10.9 55.82L10.74 55.73C10.74 55.73 10.7 55.73 10.68 55.73L10.52 55.82Z" fill="#262028"/>
<path d="M10.26 55.97C10.26 55.97 10.24 55.99 10.26 56L10.42 56.09C10.42 56.09 10.46 56.09 10.47 56.09L10.63 56C10.63 56 10.65 55.98 10.63 55.97L10.47 55.88C10.47 55.88 10.43 55.88 10.42 55.88L10.26 55.97Z" fill="#262028"/>
<path d="M10 56.12C10 56.12 9.98 56.14 10 56.15L10.16 56.24C10.16 56.24 10.2 56.24 10.21 56.24L10.37 56.15C10.37 56.15 10.39 56.13 10.37 56.12L10.21 56.03C10.21 56.03 10.17 56.03 10.15 56.03L9.98999 56.12H10Z" fill="#262028"/>
<path d="M9.75001 56.27C9.75001 56.27 9.73001 56.29 9.75001 56.3L9.91001 56.39C9.91001 56.39 9.95 56.39 9.96 56.39L10.12 56.3C10.12 56.3 10.14 56.28 10.12 56.27L9.96 56.18C9.96 56.18 9.92001 56.18 9.91001 56.18L9.75001 56.27Z" fill="#262028"/>
<path d="M9.49 56.42C9.49 56.42 9.47 56.44 9.49 56.45L9.65 56.54C9.65 56.54 9.69002 56.54 9.70002 56.54L9.85999 56.45C9.85999 56.45 9.87999 56.43 9.85999 56.42L9.70002 56.33C9.70002 56.33 9.66 56.33 9.65 56.33L9.49 56.42Z" fill="#262028"/>
<path d="M9.23001 56.57C9.23001 56.57 9.21001 56.59 9.23001 56.6L9.39001 56.69C9.39001 56.69 9.43 56.69 9.44 56.69L9.60001 56.6C9.60001 56.6 9.62001 56.58 9.60001 56.57L9.44 56.48C9.44 56.48 9.4 56.48 9.38 56.48L9.22 56.57H9.23001Z" fill="#262028"/>
<path d="M8.98002 56.71C8.98002 56.71 8.96002 56.73 8.98002 56.74L9.14002 56.83C9.14002 56.83 9.18001 56.83 9.19001 56.83L9.35001 56.74C9.35001 56.74 9.37001 56.72 9.35001 56.71L9.19001 56.62C9.19001 56.62 9.15002 56.62 9.14002 56.62L8.98002 56.71Z" fill="#262028"/>
<path d="M8.72001 56.86C8.72001 56.86 8.70001 56.88 8.72001 56.89L8.88001 56.98C8.88001 56.98 8.92 56.98 8.93 56.98L9.09 56.89C9.09 56.89 9.11 56.87 9.09 56.86L8.93 56.77C8.93 56.77 8.89001 56.77 8.88001 56.77L8.72001 56.86Z" fill="#262028"/>
<path d="M8.46 57.01C8.46 57.01 8.44 57.03 8.46 57.04L8.62 57.13C8.62 57.13 8.66002 57.13 8.67002 57.13L8.82999 57.04C8.82999 57.04 8.84999 57.02 8.82999 57.01L8.67002 56.92C8.67002 56.92 8.63 56.92 8.62 56.92L8.46 57.01Z" fill="#262028"/>
<path d="M8.20001 57.16C8.20001 57.16 8.18001 57.18 8.20001 57.19L8.35999 57.28C8.35999 57.28 8.4 57.28 8.41 57.28L8.57001 57.19C8.57001 57.19 8.59001 57.17 8.57001 57.16L8.41 57.07C8.41 57.07 8.37001 57.07 8.35001 57.07L8.19 57.16H8.20001Z" fill="#262028"/>
<path d="M7.95002 57.31C7.95002 57.31 7.93002 57.33 7.95002 57.34L8.10999 57.43C8.10999 57.43 8.15001 57.43 8.16001 57.43L8.32002 57.34C8.32002 57.34 8.34002 57.32 8.32002 57.31L8.16001 57.22C8.16001 57.22 8.11999 57.22 8.10999 57.22L7.95002 57.31Z" fill="#262028"/>
<path d="M10.89 55.9C10.89 55.9 10.87 55.92 10.89 55.93L11.05 56.02C11.05 56.02 11.09 56.02 11.1 56.02L11.64 55.71C11.64 55.71 11.66 55.69 11.64 55.68L11.48 55.59C11.48 55.59 11.44 55.59 11.42 55.59L10.88 55.9H10.89Z" fill="#262028"/>
<path d="M10.64 56.04C10.64 56.04 10.62 56.06 10.64 56.07L10.8 56.16C10.8 56.16 10.84 56.16 10.86 56.16L11.02 56.07C11.02 56.07 11.04 56.05 11.02 56.04L10.86 55.95C10.86 55.95 10.82 55.95 10.81 55.95L10.65 56.04H10.64Z" fill="#262028"/>
<path d="M11.27 55.97C11.27 55.97 11.25 55.99 11.27 56L11.43 56.09C11.43 56.09 11.47 56.09 11.49 56.09L11.9 55.85C11.9 55.85 11.92 55.83 11.9 55.82L11.74 55.73C11.74 55.73 11.7 55.73 11.69 55.73L11.28 55.97H11.27Z" fill="#262028"/>
<path d="M11.02 56.12C11.02 56.12 11 56.14 11.02 56.15L11.18 56.24C11.18 56.24 11.22 56.24 11.24 56.24L11.4 56.15C11.4 56.15 11.42 56.13 11.4 56.12L11.24 56.03C11.24 56.03 11.2 56.03 11.19 56.03L11.03 56.12H11.02Z" fill="#262028"/>
<path d="M10.38 56.19C10.38 56.19 10.36 56.21 10.38 56.22L10.54 56.31C10.54 56.31 10.58 56.31 10.6 56.31L10.76 56.22C10.76 56.22 10.78 56.2 10.76 56.19L10.6 56.1C10.6 56.1 10.56 56.1 10.54 56.1L10.38 56.19Z" fill="#262028"/>
<path d="M10.76 56.26C10.76 56.26 10.74 56.28 10.76 56.29L10.92 56.38C10.92 56.38 10.96 56.38 10.97 56.38L11.13 56.29C11.13 56.29 11.15 56.27 11.13 56.26L10.97 56.17C10.97 56.17 10.93 56.17 10.92 56.17L10.76 56.26Z" fill="#262028"/>
<path d="M10.13 56.34C10.13 56.34 10.11 56.36 10.13 56.37L10.29 56.46C10.29 56.46 10.33 56.46 10.35 56.46L10.51 56.37C10.51 56.37 10.53 56.35 10.51 56.34L10.35 56.25C10.35 56.25 10.31 56.25 10.29 56.25L10.13 56.34Z" fill="#262028"/>
<path d="M10.5 56.41C10.5 56.41 10.48 56.43 10.5 56.44L10.66 56.53C10.66 56.53 10.7 56.53 10.71 56.53L10.87 56.44C10.87 56.44 10.89 56.42 10.87 56.41L10.71 56.32C10.71 56.32 10.67 56.32 10.66 56.32L10.5 56.41Z" fill="#262028"/>
<path d="M9.87 56.49C9.87 56.49 9.85 56.51 9.87 56.52L10.03 56.61C10.03 56.61 10.07 56.61 10.09 56.61L10.25 56.52C10.25 56.52 10.27 56.5 10.25 56.49L10.09 56.4C10.09 56.4 10.05 56.4 10.03 56.4L9.87 56.49Z" fill="#262028"/>
<path d="M10.25 56.56C10.25 56.56 10.23 56.58 10.25 56.59L10.41 56.68C10.41 56.68 10.45 56.68 10.46 56.68L10.62 56.59C10.62 56.59 10.64 56.57 10.62 56.56L10.46 56.47C10.46 56.47 10.42 56.47 10.41 56.47L10.25 56.56Z" fill="#262028"/>
<path d="M9.60999 56.64C9.60999 56.64 9.58999 56.66 9.60999 56.67L9.77 56.76C9.77 56.76 9.80999 56.76 9.82999 56.76L9.99 56.67C9.99 56.67 10.01 56.65 9.99 56.64L9.82999 56.55C9.82999 56.55 9.79 56.55 9.77 56.55L9.60999 56.64Z" fill="#262028"/>
<path d="M9.99 56.71C9.99 56.71 9.97 56.73 9.99 56.74L10.15 56.83C10.15 56.83 10.19 56.83 10.21 56.83L10.37 56.74C10.37 56.74 10.39 56.72 10.37 56.71L10.21 56.62C10.21 56.62 10.17 56.62 10.16 56.62L10 56.71H9.99Z" fill="#262028"/>
<path d="M9.35001 56.79C9.35001 56.79 9.33001 56.81 9.35001 56.82L9.51002 56.91C9.51002 56.91 9.55002 56.91 9.57002 56.91L9.73002 56.82C9.73002 56.82 9.75002 56.8 9.73002 56.79L9.57002 56.7C9.57002 56.7 9.53002 56.7 9.51002 56.7L9.35001 56.79Z" fill="#262028"/>
<path d="M9.73002 56.86C9.73002 56.86 9.71002 56.88 9.73002 56.89L9.89002 56.98C9.89002 56.98 9.93001 56.98 9.94001 56.98L10.1 56.89C10.1 56.89 10.12 56.87 10.1 56.86L9.94001 56.77C9.94001 56.77 9.90002 56.77 9.89002 56.77L9.73002 56.86Z" fill="#262028"/>
<path d="M9.10001 56.93C9.10001 56.93 9.08001 56.95 9.10001 56.96L9.26002 57.05C9.26002 57.05 9.30002 57.05 9.32002 57.05L9.48002 56.96C9.48002 56.96 9.50002 56.94 9.48002 56.93L9.32002 56.84C9.32002 56.84 9.28002 56.84 9.26002 56.84L9.10001 56.93Z" fill="#262028"/>
<path d="M9.48002 57.01C9.48002 57.01 9.46002 57.03 9.48002 57.04L9.64002 57.13C9.64002 57.13 9.68001 57.13 9.69001 57.13L9.85001 57.04C9.85001 57.04 9.87001 57.02 9.85001 57.01L9.69001 56.92C9.69001 56.92 9.65002 56.92 9.64002 56.92L9.48002 57.01Z" fill="#262028"/>
<path d="M8.84 57.08C8.84 57.08 8.82 57.1 8.84 57.11L9.00001 57.2C9.00001 57.2 9.04001 57.2 9.06001 57.2L9.22001 57.11C9.22001 57.11 9.24001 57.09 9.22001 57.08L9.06001 56.99C9.06001 56.99 9.02001 56.99 9.00001 56.99L8.84 57.08Z" fill="#262028"/>
<path d="M8.57999 57.23C8.57999 57.23 8.55999 57.25 8.57999 57.26L8.74 57.35C8.74 57.35 8.78 57.35 8.8 57.35L8.96 57.26C8.96 57.26 8.98 57.24 8.96 57.23L8.8 57.14C8.8 57.14 8.76 57.14 8.74 57.14L8.57999 57.23Z" fill="#262028"/>
<path d="M8.20002 57.45C8.20002 57.45 8.18002 57.47 8.20002 57.48L8.35999 57.57C8.35999 57.57 8.40001 57.57 8.41001 57.57L8.70002 57.41C8.70002 57.41 8.72002 57.39 8.70002 57.38L8.54002 57.29C8.54002 57.29 8.5 57.29 8.49 57.29L8.20002 57.45Z" fill="#262028"/>
<path d="M9.22001 57.15C9.22001 57.15 9.20001 57.17 9.22001 57.18L9.38001 57.27C9.38001 57.27 9.42 57.27 9.43 57.27L9.59 57.18C9.59 57.18 9.61 57.16 9.59 57.15L9.43 57.06C9.43 57.06 9.39001 57.06 9.38001 57.06L9.22001 57.15Z" fill="#262028"/>
<path d="M8.96 57.3C8.96 57.3 8.94 57.32 8.96 57.33L9.12 57.42C9.12 57.42 9.16002 57.42 9.17002 57.42L9.32999 57.33C9.32999 57.33 9.34999 57.31 9.32999 57.3L9.17002 57.21C9.17002 57.21 9.13 57.21 9.12 57.21L8.96 57.3Z" fill="#262028"/>
<path d="M8.45002 57.6C8.45002 57.6 8.43002 57.62 8.45002 57.63L8.60999 57.72C8.60999 57.72 8.65001 57.72 8.66001 57.72L9.07002 57.48C9.07002 57.48 9.09002 57.46 9.07002 57.45L8.91001 57.36C8.91001 57.36 8.86999 57.36 8.85999 57.36L8.45002 57.6Z" fill="#262028"/>
<path d="M11.4 56.19C11.4 56.19 11.38 56.21 11.4 56.22L11.56 56.31C11.56 56.31 11.6 56.31 11.61 56.31L12.14 56C12.14 56 12.16 55.98 12.14 55.97L11.98 55.88C11.98 55.88 11.94 55.88 11.93 55.88L11.4 56.19Z" fill="#262028"/>
<path d="M11.14 56.34C11.14 56.34 11.12 56.36 11.14 56.37L11.3 56.46C11.3 56.46 11.34 56.46 11.35 56.46L11.51 56.37C11.51 56.37 11.53 56.35 11.51 56.34L11.35 56.25C11.35 56.25 11.31 56.25 11.3 56.25L11.14 56.34Z" fill="#262028"/>
<path d="M10.76 55.38C10.76 55.38 10.74 55.4 10.76 55.41L10.92 55.5C10.92 55.5 10.96 55.5 10.98 55.5L11.14 55.41C11.14 55.41 11.16 55.39 11.14 55.38L10.98 55.29C10.98 55.29 10.94 55.29 10.92 55.29L10.76 55.38Z" fill="#262028"/>
<path d="M10.5 55.53C10.5 55.53 10.48 55.55 10.5 55.56L10.66 55.65C10.66 55.65 10.7 55.65 10.72 55.65L10.88 55.56C10.88 55.56 10.9 55.54 10.88 55.53L10.72 55.44C10.72 55.44 10.68 55.44 10.66 55.44L10.5 55.53Z" fill="#262028"/>
<path d="M10.25 55.67C10.25 55.67 10.23 55.69 10.25 55.7L10.41 55.79C10.41 55.79 10.45 55.79 10.46 55.79L10.62 55.7C10.62 55.7 10.64 55.68 10.62 55.67L10.46 55.58C10.46 55.58 10.42 55.58 10.41 55.58L10.25 55.67Z" fill="#262028"/>
<path d="M10.88 56.48C10.88 56.48 10.86 56.5 10.88 56.51L11.04 56.6C11.04 56.6 11.08 56.6 11.09 56.6L11.25 56.51C11.25 56.51 11.27 56.49 11.25 56.48L11.09 56.39C11.09 56.39 11.05 56.39 11.04 56.39L10.88 56.48Z" fill="#262028"/>
<path d="M10.63 56.63C10.63 56.63 10.61 56.65 10.63 56.66L10.79 56.75C10.79 56.75 10.83 56.75 10.84 56.75L11 56.66C11 56.66 11.02 56.64 11 56.63L10.84 56.54C10.84 56.54 10.8 56.54 10.79 56.54L10.63 56.63Z" fill="#262028"/>
<path d="M10.37 56.78C10.37 56.78 10.35 56.8 10.37 56.81L10.53 56.9C10.53 56.9 10.57 56.9 10.58 56.9L10.74 56.81C10.74 56.81 10.76 56.79 10.74 56.78L10.58 56.69C10.58 56.69 10.54 56.69 10.53 56.69L10.37 56.78Z" fill="#262028"/>
<path d="M10.11 56.93C10.11 56.93 10.09 56.95 10.11 56.96L10.27 57.05C10.27 57.05 10.31 57.05 10.33 57.05L10.49 56.96C10.49 56.96 10.51 56.94 10.49 56.93L10.33 56.84C10.33 56.84 10.29 56.84 10.28 56.84L10.12 56.93H10.11Z" fill="#262028"/>
<path d="M9.85999 57.08C9.85999 57.08 9.83999 57.1 9.85999 57.11L10.02 57.2C10.02 57.2 10.06 57.2 10.07 57.2L10.23 57.11C10.23 57.11 10.25 57.09 10.23 57.08L10.07 56.99C10.07 56.99 10.03 56.99 10.02 56.99L9.85999 57.08Z" fill="#262028"/>
<path d="M9.60001 57.23C9.60001 57.23 9.58001 57.25 9.60001 57.26L9.76002 57.35C9.76002 57.35 9.80002 57.35 9.82002 57.35L9.98002 57.26C9.98002 57.26 10 57.24 9.98002 57.23L9.82002 57.14C9.82002 57.14 9.78 57.14 9.77 57.14L9.60999 57.23H9.60001Z" fill="#262028"/>
<path d="M9.34 57.37C9.34 57.37 9.32 57.39 9.34 57.4L9.5 57.49C9.5 57.49 9.53999 57.49 9.54999 57.49L9.70999 57.4C9.70999 57.4 9.72999 57.38 9.70999 57.37L9.54999 57.28C9.54999 57.28 9.50999 57.28 9.48999 57.28L9.32999 57.37H9.34Z" fill="#262028"/>
<path d="M9.09 57.52C9.09 57.52 9.07 57.54 9.09 57.55L9.25001 57.64C9.25001 57.64 9.29 57.64 9.3 57.64L9.46 57.55C9.46 57.55 9.48 57.53 9.46 57.52L9.3 57.43C9.3 57.43 9.26001 57.43 9.25001 57.43L9.09 57.52Z" fill="#262028"/>
<path d="M9.98999 55.82C9.98999 55.82 9.96999 55.84 9.98999 55.85L10.15 55.94C10.15 55.94 10.19 55.94 10.2 55.94L10.36 55.85C10.36 55.85 10.38 55.83 10.36 55.82L10.2 55.73C10.2 55.73 10.16 55.73 10.14 55.73L9.98001 55.82H9.98999Z" fill="#262028"/>
<path d="M9.48002 56.11C9.48002 56.11 9.46002 56.13 9.48002 56.14L9.64002 56.23C9.64002 56.23 9.68001 56.23 9.69001 56.23L10.1 55.99C10.1 55.99 10.12 55.97 10.1 55.96L9.94001 55.87C9.94001 55.87 9.90002 55.87 9.89002 55.87L9.48002 56.11Z" fill="#262028"/>
<path d="M8.45001 56.71C8.45001 56.71 8.43001 56.73 8.45001 56.74L8.60999 56.83C8.60999 56.83 8.65 56.83 8.66 56.83L9.59 56.29C9.59 56.29 9.61 56.27 9.59 56.26L9.42999 56.17C9.42999 56.17 9.39 56.17 9.37 56.17L8.44 56.71H8.45001Z" fill="#262028"/>
<path d="M8.20002 56.86C8.20002 56.86 8.18002 56.88 8.20002 56.89L8.35999 56.98C8.35999 56.98 8.40002 56.98 8.42002 56.98L8.57999 56.89C8.57999 56.89 8.59999 56.87 8.57999 56.86L8.42002 56.77C8.42002 56.77 8.38 56.77 8.37 56.77L8.21 56.86H8.20002Z" fill="#262028"/>
<path d="M8.70002 57.74C8.70002 57.74 8.68002 57.76 8.70002 57.77L8.85999 57.86C8.85999 57.86 8.90001 57.86 8.91001 57.86L9.20002 57.7C9.20002 57.7 9.22002 57.68 9.20002 57.67L9.04002 57.58C9.04002 57.58 9 57.58 8.99 57.58L8.70002 57.74Z" fill="#262028"/>
<path d="M7.68 57.15C7.68 57.15 7.66 57.17 7.68 57.18L7.84 57.27C7.84 57.27 7.88 57.27 7.9 57.27L8.31001 57.03C8.31001 57.03 8.33001 57.01 8.31001 57L8.15 56.91C8.15 56.91 8.11001 56.91 8.10001 56.91L7.69001 57.15H7.68Z" fill="#262028"/>
<path d="M13.48 53.98C13.54 53.95 13.59 53.98 13.59 54.04L12.74 56.06L8.98001 58.25L9.82001 56.23C9.82001 56.23 9.84 56.11 9.94 56.05L13.49 53.99L13.48 53.98Z" fill="white"/>
<path d="M8.98002 58.39C8.98002 58.39 8.91002 58.38 8.88002 58.35C8.83002 58.31 8.82001 58.24 8.84001 58.18L9.68 56.17C9.69 56.12 9.74001 55.98 9.87001 55.91L13.42 53.85C13.5 53.81 13.58 53.8 13.64 53.85C13.71 53.89 13.75 53.96 13.75 54.05C13.75 54.07 13.75 54.09 13.74 54.11L12.89 56.13C12.89 56.13 12.86 56.18 12.83 56.2L9.07002 58.39C9.07002 58.39 9.02001 58.41 9.00001 58.41L8.98002 58.39ZM13.35 54.23L10.01 56.17C10.01 56.17 9.96 56.24 9.96 56.25C9.96 56.26 9.96 56.27 9.96 56.28L9.29002 57.89L12.63 55.95L13.36 54.23H13.35Z" fill="#262028"/>
<path d="M7.29001 55.73C7.35001 55.73 8.27999 56.38 8.29999 56.4C8.31999 56.42 8.37001 56.46 8.39001 56.42C8.40001 56.39 8.39001 56.35 8.39001 56.33C8.38001 56.29 8.32 56.12 8.31 56.1C8.31 56.1 8.77001 56.54 8.82001 56.49C8.86001 56.45 8.89 56.4 8.97 56.41C9.1 56.43 9.02001 56.24 8.92001 56.12C8.88001 56.06 8.64999 55.82 8.73999 55.81C8.78999 55.81 9.14 56.03 9.19 56.05C9.22 56.06 9.30999 56.02 9.29999 55.97C9.28999 55.92 9.24001 55.88 9.20001 55.85C9.08001 55.74 8.94 55.65 8.81 55.57C8.75 55.53 8.68 55.49 8.62 55.47C8.39 55.38 7.74999 55.24 7.67999 55.21C7.63999 55.2 7.58001 55.16 7.54001 55.17C7.46001 55.19 7.26999 55.72 7.29999 55.72L7.29001 55.73Z" fill="white"/>
<path d="M8.81 56.66C8.74 56.66 8.66001 56.62 8.51001 56.5C8.48001 56.55 8.44 56.58 8.38 56.59C8.28 56.61 8.20999 56.53 8.17999 56.5C8.10999 56.45 7.37 55.93 7.25 55.87C7.19 55.85 7.14001 55.78 7.14001 55.72C7.14001 55.64 7.30001 55.09 7.48001 55.03C7.57001 55 7.65001 55.03 7.70001 55.06H7.72C7.72 55.06 7.81 55.09 7.91 55.12C8.14 55.18 8.50001 55.27 8.67001 55.33C8.74001 55.36 8.79999 55.4 8.85999 55.43H8.88C9.02 55.53 9.16999 55.62 9.29999 55.74C9.34999 55.78 9.42 55.85 9.44 55.94C9.46 56.01 9.44 56.09 9.38 56.14C9.32 56.2 9.22001 56.23 9.14001 56.2C9.18001 56.29 9.19999 56.39 9.14999 56.47C9.10999 56.54 9.03999 56.57 8.95999 56.56L8.94 56.58L8.92001 56.6C8.92001 56.6 8.85 56.65 8.81 56.65V56.66ZM8.29999 55.96C8.29999 55.96 8.36999 55.97 8.39999 56C8.52999 56.12 8.69 56.26 8.78 56.33C8.8 56.32 8.82 56.3 8.84 56.29C8.83 56.27 8.81001 56.24 8.79001 56.22C8.79001 56.22 8.77001 56.2 8.76001 56.18C8.61001 56.01 8.53001 55.9 8.57001 55.78C8.59001 55.74 8.62999 55.7 8.67999 55.68C8.62999 55.65 8.58999 55.63 8.54999 55.61C8.39999 55.55 8.03999 55.46 7.82999 55.41C7.71999 55.38 7.64 55.36 7.62 55.35H7.57999C7.53999 55.41 7.48001 55.56 7.45001 55.65C7.64001 55.76 7.93999 55.96 8.14999 56.11C8.14999 56.06 8.17 56.01 8.22 55.98C8.25 55.96 8.26999 55.96 8.29999 55.96ZM7.32999 55.59C7.32999 55.59 7.36 55.6 7.38 55.61C7.37 55.6 7.34999 55.59 7.32999 55.58V55.59Z" fill="#262028"/>
<path d="M5.35998 50.07C5.74998 50.14 5.95001 50.52 5.95001 50.87C5.95001 51.41 5.76001 53.02 5.79001 53.31C5.83001 53.66 6.93999 54.5 7.17999 54.71C7.40999 54.91 7.78001 55.12 7.60001 55.49C7.55001 55.59 7.43 55.73 7.31 55.74C7.05 55.78 6.69999 55.54 6.48999 55.42C6.08999 55.19 5.69999 54.93 5.36999 54.61C4.67999 53.95 4.62999 53.56 4.57999 53.28C4.42999 52.52 4.47998 51.71 4.60998 50.94C4.62998 50.81 4.64999 49.94 5.36999 50.07H5.35998Z" fill="white"/>
<path d="M7.25 55.89C6.99 55.89 6.71 55.72 6.5 55.6L6.41001 55.55C6.10001 55.37 5.65001 55.09 5.26001 54.72C4.57001 54.06 4.48999 53.65 4.42999 53.35V53.31C4.28999 52.62 4.30001 51.84 4.45001 50.92V50.88C4.47001 50.71 4.52001 50.26 4.82001 50.04C4.97001 49.93 5.16001 49.89 5.38001 49.93C5.86001 50.02 6.09 50.48 6.09 50.87C6.09 51.14 6.05 51.68 6 52.19C5.96 52.67 5.91999 53.16 5.92999 53.29C5.94999 53.52 6.81 54.22 7.09 54.44C7.17 54.5 7.22999 54.56 7.26999 54.59C7.29999 54.62 7.34 54.64 7.37 54.67C7.6 54.85 7.94001 55.13 7.73001 55.55C7.67001 55.67 7.51001 55.86 7.32001 55.88C7.29001 55.88 7.26999 55.88 7.23999 55.88L7.25 55.89ZM5.22 50.2C5.13 50.2 5.06 50.22 5 50.27C4.81 50.41 4.77 50.77 4.75 50.91C4.75 50.94 4.75 50.96 4.75 50.97C4.61 51.85 4.6 52.6 4.72 53.26V53.3C4.78 53.57 4.84 53.91 5.47 54.51C5.75 54.78 6.09 55.02 6.56 55.29L6.66001 55.35C6.84001 55.46 7.12001 55.62 7.29001 55.6C7.34001 55.6 7.43 55.51 7.47 55.43C7.56 55.24 7.45 55.13 7.19 54.92C7.15 54.89 7.11999 54.86 7.07999 54.83C7.03999 54.8 6.98 54.75 6.9 54.68C6.14 54.06 5.66001 53.62 5.63001 53.32C5.62001 53.18 5.65001 52.79 5.70001 52.17C5.74001 51.66 5.79001 51.14 5.79001 50.88C5.79001 50.6 5.64001 50.29 5.32001 50.23C5.32001 50.23 5.23999 50.22 5.20999 50.22L5.22 50.2Z" fill="#262028"/>
<path d="M9.72 54.62C9.72 54.62 9.74 54.66 9.75 54.68C9.79 54.79 9.81001 54.91 9.85001 55.02C9.92001 55.19 10.04 55.35 10.2 55.45C10.23 55.47 10.3 55.51 10.34 55.5C10.42 55.47 10.34 55.35 10.32 55.32C10.3 55.28 10.27 55.25 10.25 55.21C10.23 55.18 10.19 55.11 10.2 55.08C10.2 55.06 10.25 55.05 10.27 55.04C10.38 55.03 10.49 55.12 10.54 55.2C10.59 55.27 10.61 55.33 10.64 55.41C10.66 55.46 10.66 55.57 10.73 55.55C10.78 55.55 10.87 55.48 10.9 55.44C10.94 55.4 10.94 55.34 10.94 55.29C10.94 55.24 10.95 55.2 10.98 55.16C11 55.13 11.02 55.13 11.02 55.08C11.02 55.03 11 54.98 10.97 54.93C10.91 54.8 10.79 54.69 10.7 54.6C10.6 54.51 10.48 54.46 10.37 54.38C10.31 54.34 10.27 54.29 10.22 54.24C10.22 54.46 9.89001 54.64 9.70001 54.62H9.72Z" fill="white"/>
<path d="M10.73 55.7C10.66 55.7 10.56 55.66 10.52 55.49C10.5 55.56 10.46 55.61 10.4 55.63C10.3 55.67 10.2 55.61 10.14 55.57C9.95003 55.45 9.81001 55.28 9.72001 55.07C9.69001 55 9.67001 54.92 9.65001 54.85C9.64001 54.81 9.63 54.76 9.61 54.72C9.61 54.71 9.61001 54.69 9.59001 54.68C9.56001 54.63 9.57001 54.57 9.59001 54.53C9.62001 54.48 9.68002 54.46 9.73002 54.47C9.79002 54.47 9.92002 54.43 10.01 54.36C10.06 54.32 10.08 54.28 10.08 54.24C10.08 54.18 10.12 54.12 10.18 54.1C10.24 54.08 10.3 54.1 10.34 54.14C10.38 54.19 10.42 54.23 10.46 54.26C10.5 54.29 10.54 54.31 10.58 54.34C10.65 54.38 10.73 54.43 10.8 54.49C10.94 54.62 11.04 54.75 11.1 54.86C11.13 54.93 11.15 54.99 11.16 55.06C11.17 55.16 11.13 55.21 11.1 55.25C11.1 55.26 11.09 55.27 11.09 55.3C11.09 55.38 11.09 55.48 11.01 55.55C10.98 55.58 10.86 55.67 10.76 55.69C10.75 55.69 10.73 55.69 10.71 55.69L10.73 55.7ZM10.29 54.89C10.45 54.89 10.59 55 10.67 55.11C10.74 55.2 10.77 55.29 10.79 55.36H10.81V55.29C10.81 55.23 10.82 55.15 10.88 55.07C10.88 55.07 10.87 55.02 10.85 55C10.81 54.92 10.73 54.82 10.61 54.71C10.56 54.67 10.5 54.63 10.44 54.6C10.39 54.57 10.34 54.54 10.29 54.51C10.29 54.51 10.24 54.56 10.21 54.59C10.13 54.67 10.02 54.72 9.91002 54.75V54.79C9.94002 54.86 9.95002 54.92 9.98002 54.97C10 55.01 10.02 55.05 10.04 55.09C10.04 55.07 10.04 55.06 10.04 55.04C10.06 54.96 10.14 54.91 10.24 54.89H10.27H10.29Z" fill="#262028"/>
<path d="M9.41 74.94L9.48999 75.27L30.78 87.42L30.69 87.1L9.41 74.94Z" fill="#262028"/>
<path d="M30.78 87.57C30.78 87.57 30.73 87.57 30.71 87.55L9.42002 75.39C9.42002 75.39 9.36001 75.34 9.35001 75.3L9.26999 74.98C9.25999 74.92 9.27001 74.86 9.32001 74.83C9.37001 74.79 9.43001 74.79 9.48001 74.82L30.77 86.98C30.77 86.98 30.83 87.03 30.84 87.07L30.92 87.39C30.93 87.45 30.92 87.51 30.87 87.54C30.84 87.56 30.81 87.57 30.78 87.57Z" fill="#262028"/>
<path d="M30.69 87.1L30.78 87.42L39.1 80.74L39.01 79.94L30.69 87.1Z" fill="#262028"/>
<path d="M30.78 87.57C30.78 87.57 30.75 87.57 30.73 87.57C30.68 87.55 30.65 87.51 30.63 87.47L30.55 87.15C30.54 87.1 30.55 87.04 30.6 87L38.92 79.84C38.92 79.84 39.02 79.79 39.07 79.81C39.12 79.83 39.16 79.88 39.16 79.93L39.25 80.73C39.25 80.78 39.23 80.83 39.2 80.86L30.88 87.55C30.88 87.55 30.82 87.58 30.79 87.58L30.78 87.57ZM30.87 87.15L38.95 80.67L38.9 80.23L30.87 87.15Z" fill="#262028"/>
<path d="M9.41 74.94L30.69 87.1L39.01 79.94L17.72 67.78L9.41 74.94Z" fill="white"/>
<path d="M30.69 87.25C30.69 87.25 30.64 87.25 30.62 87.23L9.32999 75.07C9.32999 75.07 9.26001 75 9.26001 74.96C9.26001 74.91 9.27 74.86 9.31 74.83L17.63 67.67C17.63 67.67 17.75 67.62 17.8 67.65L39.09 79.81C39.09 79.81 39.16 79.88 39.16 79.92C39.16 79.97 39.15 80.02 39.11 80.05L30.79 87.21C30.79 87.21 30.73 87.25 30.69 87.25ZM9.66 74.92L30.67 86.92L38.75 79.96L17.74 67.96L9.66 74.92Z" fill="#262028"/>
<path d="M17.15 69.05L18.24 69.67L18.82 69.17L17.73 68.55L17.15 69.05Z" fill="#262028"/>
<path d="M15.69 70.4L16.78 71.02L17.84 70.11L16.75 69.48L15.69 70.4Z" fill="#262028"/>
<path d="M18.53 69.83L19.62 70.46L20.2 69.96L19.11 69.33L18.53 69.83Z" fill="#262028"/>
<path d="M17.01 71.16L18.11 71.78L19.17 70.86L18.08 70.24L17.01 71.16Z" fill="#262028"/>
<path d="M19.91 70.62L21 71.24L21.58 70.74L20.49 70.12L19.91 70.62Z" fill="#262028"/>
<path d="M18.34 71.91L19.43 72.54L20.49 71.62L19.4 71L18.34 71.91Z" fill="#262028"/>
<path d="M21.28 71.41L22.38 72.03L22.96 71.53L21.86 70.91L21.28 71.41Z" fill="#262028"/>
<path d="M19.66 72.67L20.75 73.29L21.82 72.38L20.72 71.75L19.66 72.67Z" fill="#262028"/>
<path d="M20.99 73.43L22.08 74.05L23.14 73.13L22.05 72.51L20.99 73.43Z" fill="#262028"/>
<path d="M23.35 72.59L24.44 73.21L25.02 72.71L23.93 72.09L23.35 72.59Z" fill="#262028"/>
<path d="M22.31 74.18L23.4 74.81L24.47 73.89L23.37 73.27L22.31 74.18Z" fill="#262028"/>
<path d="M24.73 73.37L25.82 74L26.4 73.5L25.31 72.87L24.73 73.37Z" fill="#262028"/>
<path d="M23.63 74.94L24.73 75.56L25.79 74.65L24.7 74.02L23.63 74.94Z" fill="#262028"/>
<path d="M26.11 74.16L27.2 74.78L27.78 74.28L26.69 73.66L26.11 74.16Z" fill="#262028"/>
<path d="M24.96 75.69L26.05 76.32L27.11 75.4L26.02 74.78L24.96 75.69Z" fill="#262028"/>
<path d="M27.48 74.95L28.58 75.57L29.16 75.07L28.06 74.45L27.48 74.95Z" fill="#262028"/>
<path d="M26.28 76.45L27.37 77.07L28.44 76.16L27.34 75.53L26.28 76.45Z" fill="#262028"/>
<path d="M29.55 76.13L30.64 76.75L31.22 76.25L30.13 75.63L29.55 76.13Z" fill="#262028"/>
<path d="M27.61 77.21L28.7 77.83L29.76 76.92L28.67 76.29L27.61 77.21Z" fill="#262028"/>
<path d="M30.93 76.91L32.02 77.54L32.6 77.04L31.51 76.41L30.93 76.91Z" fill="#262028"/>
<path d="M28.93 77.96L30.02 78.59L31.09 77.67L29.99 77.05L28.93 77.96Z" fill="#262028"/>
<path d="M32.31 77.7L33.4 78.33L33.98 77.83L32.89 77.2L32.31 77.7Z" fill="#262028"/>
<path d="M30.25 78.72L31.35 79.34L32.41 78.43L31.32 77.8L30.25 78.72Z" fill="#262028"/>
<path d="M33.68 78.49L34.78 79.11L35.36 78.61L34.26 77.99L33.68 78.49Z" fill="#262028"/>
<path d="M31.58 79.48L32.67 80.1L33.73 79.18L32.64 78.56L31.58 79.48Z" fill="#262028"/>
<path d="M32.9 80.23L33.99 80.86L35.06 79.94L33.97 79.32L32.9 80.23Z" fill="#262028"/>
<path d="M35.75 79.67L36.85 80.3L37.43 79.8L36.33 79.17L35.75 79.67Z" fill="#262028"/>
<path d="M34.23 80.99L35.32 81.61L36.38 80.7L35.29 80.07L34.23 80.99Z" fill="#262028"/>
<path d="M13.15 72.58L14.25 73.21L15.51 72.12L16.18 72.49L17.24 71.58L15.48 70.58L15.11 70.9L14.42 71.49L13.15 72.58Z" fill="#262028"/>
<path d="M16.41 72.63L17.5 73.25L18.56 72.34L17.47 71.71L16.41 72.63Z" fill="#262028"/>
<path d="M14.48 73.34L15.57 73.96L16.63 73.05L15.54 72.43L14.48 73.34Z" fill="#262028"/>
<path d="M17.73 73.38L18.82 74.01L19.89 73.09L18.79 72.47L17.73 73.38Z" fill="#262028"/>
<path d="M19.06 74.14L20.15 74.76L21.21 73.85L20.12 73.22L19.06 74.14Z" fill="#262028"/>
<path d="M20.38 74.9L21.47 75.52L22.53 74.6L21.44 73.98L20.38 74.9Z" fill="#262028"/>
<path d="M21.7 75.65L22.8 76.28L23.86 75.36L22.77 74.74L21.7 75.65Z" fill="#262028"/>
<path d="M15.8 74.1L16.89 74.72L17.96 73.81L16.86 73.18L15.8 74.1Z" fill="#262028"/>
<path d="M17.13 74.85L18.22 75.48L19.28 74.56L18.19 73.94L17.13 74.85Z" fill="#262028"/>
<path d="M18.45 75.61L19.54 76.23L20.6 75.32L19.51 74.69L18.45 75.61Z" fill="#262028"/>
<path d="M19.77 76.37L20.87 76.99L21.93 76.07L20.84 75.45L19.77 76.37Z" fill="#262028"/>
<path d="M23.03 76.41L24.12 77.03L25.18 76.12L24.09 75.49L23.03 76.41Z" fill="#262028"/>
<path d="M21.1 77.12L22.19 77.75L23.25 76.83L22.16 76.21L21.1 77.12Z" fill="#262028"/>
<path d="M24.35 77.16L25.44 77.79L26.51 76.87L25.41 76.25L24.35 77.16Z" fill="#262028"/>
<path d="M22.42 77.88L23.51 78.5L24.58 77.59L23.48 76.96L22.42 77.88Z" fill="#262028"/>
<path d="M25.68 77.92L26.77 78.54L27.83 77.63L26.74 77.01L25.68 77.92Z" fill="#262028"/>
<path d="M23.75 78.63L24.84 79.26L25.9 78.34L24.81 77.72L23.75 78.63Z" fill="#262028"/>
<path d="M27 78.68L28.09 79.3L29.16 78.39L28.06 77.76L27 78.68Z" fill="#262028"/>
<path d="M25.07 79.39L26.16 80.02L27.23 79.1L26.13 78.48L25.07 79.39Z" fill="#262028"/>
<path d="M28.32 79.43L29.42 80.06L30.48 79.14L29.39 78.52L28.32 79.43Z" fill="#262028"/>
<path d="M26.39 80.15L27.49 80.77L28.55 79.86L27.46 79.23L26.39 80.15Z" fill="#262028"/>
<path d="M29.65 80.19L30.74 80.81L31.8 79.9L30.71 79.27L29.65 80.19Z" fill="#262028"/>
<path d="M27.72 80.9L28.81 81.53L29.87 80.61L28.78 79.99L27.72 80.9Z" fill="#262028"/>
<path d="M30.97 80.95L34.05 82.7L35.11 81.79L32.04 80.03L30.97 80.95Z" fill="#262028"/>
<path d="M29.04 81.66L30.13 82.28L31.2 81.37L30.1 80.74L29.04 81.66Z" fill="#262028"/>
<path d="M11.88 73.68L13.64 74.68L14.7 73.76L12.95 72.76L11.88 73.68Z" fill="#262028"/>
<path d="M13.87 74.81L14.96 75.44L16.03 74.52L14.93 73.9L13.87 74.81Z" fill="#262028"/>
<path d="M15.2 75.57L16.29 76.19L17.35 75.28L16.26 74.65L15.2 75.57Z" fill="#262028"/>
<path d="M16.52 76.32L17.61 76.95L18.67 76.03L17.58 75.41L16.52 76.32Z" fill="#262028"/>
<path d="M17.84 77.08L18.94 77.7L20 76.79L18.91 76.16L17.84 77.08Z" fill="#262028"/>
<path d="M19.17 77.84L20.26 78.46L21.32 77.54L20.23 76.92L19.17 77.84Z" fill="#262028"/>
<path d="M20.49 78.59L21.58 79.22L22.65 78.3L21.55 77.68L20.49 78.59Z" fill="#262028"/>
<path d="M21.82 79.35L22.91 79.97L23.97 79.06L22.88 78.43L21.82 79.35Z" fill="#262028"/>
<path d="M23.14 80.11L24.23 80.73L25.29 79.81L24.2 79.19L23.14 80.11Z" fill="#262028"/>
<path d="M24.46 80.86L25.56 81.49L26.62 80.57L25.53 79.95L24.46 80.86Z" fill="#262028"/>
<path d="M25.79 81.62L26.88 82.24L27.94 81.33L26.85 80.7L25.79 81.62Z" fill="#262028"/>
<path d="M27.11 82.37L28.2 83L29.27 82.08L28.17 81.46L27.11 82.37Z" fill="#262028"/>
<path d="M10.62 74.77L13.03 76.15L14.1 75.23L11.68 73.85L10.62 74.77Z" fill="#262028"/>
<path d="M13.26 76.28L14.36 76.91L15.42 75.99L14.33 75.37L13.26 76.28Z" fill="#262028"/>
<path d="M14.59 77.04L15.68 77.66L16.74 76.75L15.65 76.12L14.59 77.04Z" fill="#262028"/>
<path d="M15.91 77.79L24.95 82.96L26.01 82.04L16.98 76.88L15.91 77.79Z" fill="#262028"/>
<path d="M25.18 83.09L26.27 83.71L27.34 82.8L26.24 82.17L25.18 83.09Z" fill="#262028"/>
<path d="M30.37 82.42L32.78 83.8L33.85 82.88L31.43 81.5L30.37 82.42Z" fill="#262028"/>
<path d="M28.44 83.13L29.53 83.75L30.59 82.84L29.5 82.22L28.44 83.13Z" fill="#262028"/>
<path d="M26.51 83.84L27.6 84.47L28.66 83.55L27.57 82.93L26.51 83.84Z" fill="#262028"/>
<path d="M29.76 83.89L31.51 84.89L32.58 83.97L30.82 82.97L29.76 83.89Z" fill="#262028"/>
<path d="M27.83 84.6L30.25 85.98L31.31 85.07L28.89 83.69L27.83 84.6Z" fill="#262028"/>
<path d="M58.22 50.58L58.19 57.85L67.25 63.1L67.28 55.83L58.22 50.58Z" fill="white"/>
<path d="M67.25 63.24C67.25 63.24 67.2 63.24 67.18 63.22L58.12 57.97C58.12 57.97 58.05 57.89 58.05 57.84L58.08 50.57C58.08 50.52 58.11 50.47 58.15 50.44C58.2 50.41 58.25 50.41 58.3 50.44L67.36 55.69C67.36 55.69 67.43 55.77 67.43 55.82L67.4 63.09C67.4 63.14 67.37 63.19 67.33 63.22C67.31 63.23 67.28 63.24 67.26 63.24H67.25ZM58.34 57.76L67.1 62.84L67.13 55.92L58.37 50.84L58.34 57.76Z" fill="#262028"/>
<path d="M59.06 54.15L61.17 54.52V55.62L60.13 55.3L61.17 56.24V57.34L59.06 55.24V54.14V54.15Z" fill="black"/>
<path d="M62.97 54.24L64.09 54.89L62.51 59.44L61.39 58.79L62.97 54.24Z" fill="black"/>
<path d="M64.31 58.06L65.35 58.32L64.31 57.44V56.34L66.42 58.4V59.5L64.31 59.17V58.07V58.06Z" fill="black"/>
<path d="M48.04 46.44L48.02 53.3L54.11 56.83L54.13 49.96L48.04 46.44Z" fill="white"/>
<path d="M54.11 56.98C54.11 56.98 54.06 56.98 54.04 56.96L47.96 53.44C47.96 53.44 47.89 53.36 47.89 53.31L47.91 46.45C47.91 46.4 47.94 46.35 47.98 46.32C48.03 46.29 48.08 46.29 48.13 46.32L54.21 49.84C54.21 49.84 54.28 49.92 54.28 49.97L54.26 56.83C54.26 56.88 54.23 56.93 54.19 56.96C54.17 56.97 54.14 56.98 54.12 56.98H54.11ZM48.18 53.22L53.97 56.57L53.99 50.05L48.2 46.7L48.18 53.22Z" fill="#262028"/>
<path d="M50.75 50.2L51.38 50.56L51.56 49.6L52.26 50.01L52.08 50.97L52.47 51.2V51.92L51.96 51.62L51.83 52.32L52.47 52.69V53.41L51.71 52.97L51.53 53.93L50.83 53.52L51.01 52.56L50.38 52.2L50.2 53.16L49.5 52.75L49.68 51.79L49.29 51.56V50.84L49.8 51.14L49.93 50.44L49.29 50.07V49.35L50.05 49.79L50.23 48.83L50.93 49.24L50.75 50.2ZM50.5 51.55L51.13 51.91L51.26 51.21L50.63 50.85L50.5 51.55Z" fill="black"/>
</svg>
